<svg width="1733" height="1762" viewBox="0 0 1733 1762" fill="none" xmlns="http://www.w3.org/2000/svg">
<path d="M1656.22 999.499V456.076L1656.3 455.971L1658.27 453.266L1695.69 401.914V26.2998H1700.62V404.072L1661.15 458.222V998.1L1690.76 1067.05V1295.78L1720.36 1345.02V1437.04H1715.43V1346.87L1685.82 1297.63V1068.43L1656.22 999.499Z" fill="#2981E2"/>
<path d="M1493.61 1722.2H49.4314V1728.01H1493.61V1722.2Z" fill="#2981E2"/>
<path d="M262.924 1736.15L273.828 1728.01L281.623 1722.2L292.526 1714.06H1394.93L1392.54 1716.74L1391.22 1718.21L1387.66 1722.2L1382.47 1728.01L1375.2 1736.15H262.924Z" fill="#2981E2"/>
<path d="M32.8343 1736.15V1714.06H237.15L226.247 1722.2L218.451 1728.01L207.548 1736.15H32.8343Z" fill="#2981E2"/>
<path d="M1651.29 527.179V453.929L1656.3 447.047L1658.27 444.332L1690.76 399.757V328.033L1695.69 335.789L1700.62 343.534L1705.56 351.289V406.219L1666.09 460.39V503.934L1661.15 511.69L1656.22 519.424L1651.29 527.179Z" fill="#F15A29"/>
<path d="M1695.61 1281.11V1288.09H1722.08V1281.11H1695.61Z" fill="#2981E2"/>
<path d="M1722.07 1297.53H1698.44L1702.61 1304.51H1722.07V1297.53Z" fill="#2981E2"/>
<path d="M1722.07 1313.94H1708.22L1712.39 1320.92H1722.07V1313.94Z" fill="#2981E2"/>
<path d="M1722.07 1330.36H1718.01L1722.07 1337.18V1330.36Z" fill="#2981E2"/>
<path d="M1695.6 1265.52V1272.49H1722.07V1265.52H1695.6Z" fill="#2981E2"/>
<path d="M1695.6 1249.92V1256.9H1722.07V1249.92H1695.6Z" fill="#2981E2"/>
<path d="M1719.41 1234.34H1695.6V1241.32H1721.2L1719.41 1234.34Z" fill="#2981E2"/>
<path d="M1715.43 1218.74H1695.6V1225.72H1717.2L1715.43 1218.74Z" fill="#2981E2"/>
<path d="M1711.43 1203.15H1695.6V1210.13H1713.22L1711.43 1203.15Z" fill="#2981E2"/>
<path d="M1707.44 1187.55H1695.6V1194.53H1709.23L1707.44 1187.55Z" fill="#2981E2"/>
<path d="M1703.46 1171.97H1695.6V1178.94H1705.24L1703.46 1171.97Z" fill="#2981E2"/>
<path d="M1699.47 1156.37H1695.6V1163.35H1701.26L1699.47 1156.37Z" fill="#2981E2"/>
<path d="M1666.18 956.818L1712.96 1061.3V1160.4H1698.74V1158.08H1710.99V1061.87L1664.43 957.902L1666.18 956.818Z" fill="#2981E2"/>
<path d="M1712.96 1526.5V1425.41L1722.83 1437.04V1526.5H1712.96Z" fill="#2981E2"/>
<path d="M1483.74 1719.3H1565.35V1730.92H1493.6L1483.74 1719.3Z" fill="#2981E2"/>
<path d="M1656.3 457.16V414.406L1679.64 386.909V305.673L1695.69 286.752L1696.82 285.427L1698.22 287.068L1695.69 290.046L1681.61 306.63V387.877L1658.27 415.374V457.16H1656.3Z" fill="#2981E2"/>
<path d="M1587.88 1742.61L1615.61 1742.54L1660.08 1687.35L1662.63 1710.61L1621.54 1761.76H1599.95L1587.88 1742.61Z" fill="#2981E2"/>
<path d="M1537.05 1707.64H1541.81L1546.74 1715.42H1541.99L1537.05 1707.64Z" fill="#2981E2"/>
<path d="M1527.86 1707.64H1532.63L1537.56 1715.42H1532.8L1527.86 1707.64Z" fill="#2981E2"/>
<path d="M1518.68 1707.64H1523.44L1528.38 1715.42H1523.61L1518.68 1707.64Z" fill="#2981E2"/>
<path d="M1509.49 1707.64H1514.26L1519.19 1715.42H1514.43L1509.49 1707.64Z" fill="#2981E2"/>
<path d="M1500.31 1707.64H1505.07L1510 1715.42H1505.25L1500.31 1707.64Z" fill="#2981E2"/>
<path d="M1491.13 1707.64H1495.88L1500.82 1715.42H1496.06L1494.33 1712.69L1492.85 1710.36L1491.13 1707.64Z" fill="#2981E2"/>
<path d="M1391.22 1719.07V1716.74H1460.27L1465.69 1710.36H1495.97V1712.69H1466.5L1461.09 1719.07H1391.22Z" fill="#2981E2"/>
<path d="M1662.57 1633.24L1662.58 1613.69L1694.09 1576.55V1549.06L1703.5 1537.98L1703.09 1582.75L1662.57 1633.24Z" fill="#2981E2"/>
<path d="M306.104 1714.15L306.183 1714.06L319.455 1698.42H1347.57L1360.84 1714.06L1360.98 1714.22L306.104 1714.15Z" fill="#2981E2"/>
<path d="M13.0698 417.373V325.35H18.0035V415.521L47.6059 464.758V693.957L77.2083 762.892V1306.32L77.1195 1306.43L75.146 1309.15L37.7385 1360.49V1736.09H32.8047V1358.33L72.2746 1304.17V764.292L42.6722 695.346V466.61L13.0698 417.373Z" fill="#2981E2"/>
<path d="M1684 34.3923H239.814V40.201H1684V34.3923Z" fill="#2981E2"/>
<path d="M338.489 48.3456L340.887 45.6623L342.209 44.1785L345.761 40.2009L350.952 34.3923L358.224 26.2581H1470.51L1459.6 34.3923L1451.81 40.2009L1440.9 48.3456H338.489Z" fill="#2981E2"/>
<path d="M1496.28 48.3456L1507.18 40.2009L1514.98 34.3923L1525.88 26.2581H1700.59V48.3456H1496.28Z" fill="#2981E2"/>
<path d="M37.7385 696.745V620.801L42.6722 613.046L47.6059 605.301L52.5397 597.546V692.578L82.1421 761.514V868.089L77.2083 860.334L72.2746 852.589L67.3409 844.834V765.67L37.7385 696.745Z" fill="#F15A29"/>
<path d="M37.8174 481.278V474.302H11.3528V481.278H37.8174Z" fill="#2981E2"/>
<path d="M11.3627 464.863H34.9854L30.8213 457.886H11.3627V464.863Z" fill="#2981E2"/>
<path d="M11.3627 448.447H25.2067L21.0426 441.47H11.3627V448.447Z" fill="#2981E2"/>
<path d="M11.3627 432.031H15.4182L11.3627 425.223V432.031Z" fill="#2981E2"/>
<path d="M37.8272 496.873V489.896H11.3627V496.873H37.8272Z" fill="#2981E2"/>
<path d="M37.8272 512.468V505.492H11.3627V512.468H37.8272Z" fill="#2981E2"/>
<path d="M14.017 528.053H37.8272V521.076H12.231L14.017 528.053Z" fill="#2981E2"/>
<path d="M18.0035 543.648H37.8272V536.671H16.2274L18.0035 543.648Z" fill="#2981E2"/>
<path d="M21.9998 559.253H37.8272V552.276H20.2138L21.9998 559.253Z" fill="#2981E2"/>
<path d="M25.9863 574.838H37.8272V567.861H24.2003L25.9863 574.838Z" fill="#2981E2"/>
<path d="M29.9728 590.432H37.8272V583.456H28.1868L29.9728 590.432Z" fill="#2981E2"/>
<path d="M33.9592 606.016H37.8272V599.05H32.1732L33.9592 606.016Z" fill="#2981E2"/>
<path d="M20.4704 601.986H34.6894V604.312H22.4439V700.523L68.9986 804.499L67.2521 805.583L20.4704 701.101V601.986Z" fill="#2981E2"/>
<path d="M10.6029 325.35V235.895H20.4704V336.978L10.6029 325.35Z" fill="#2981E2"/>
<path d="M168.078 43.1158V31.488H239.814L249.682 43.1158H168.078Z" fill="#2981E2"/>
<path d="M35.2124 1475.32L37.7385 1472.36L51.8095 1455.76V1374.51L75.146 1347.02V1305.23H77.1195V1347.99L53.783 1375.48V1456.73L37.7385 1475.63L36.6037 1476.97L35.2124 1475.32Z" fill="#2981E2"/>
<path d="M145.55 19.7864L117.813 19.8496L73.3502 75.0422L70.7945 51.7971L111.893 0.634766H133.483L145.55 19.7864Z" fill="#2981E2"/>
<path d="M186.678 46.9673H191.434L196.368 54.7647H191.612L186.678 46.9673Z" fill="#2981E2"/>
<path d="M195.865 46.9673H200.621L205.555 54.7647H200.798L195.865 46.9673Z" fill="#2981E2"/>
<path d="M205.051 46.9673H209.807L214.741 54.7647H209.985L205.051 46.9673Z" fill="#2981E2"/>
<path d="M214.238 46.9673H218.994L223.928 54.7647H219.172L214.238 46.9673Z" fill="#2981E2"/>
<path d="M223.425 46.9673H228.181L233.114 54.7647H228.358L223.425 46.9673Z" fill="#2981E2"/>
<path d="M232.601 46.9673H237.367L239.094 49.7032L240.574 52.0288L242.301 54.7647H237.535L232.601 46.9673Z" fill="#2981E2"/>
<path d="M237.456 52.0286V49.703H266.92L272.338 43.3367H342.209V45.6622H273.157L267.739 52.0286H237.456Z" fill="#2981E2"/>
<path d="M29.9333 224.415L30.3379 179.64L70.8537 129.161V148.702L39.337 185.838V213.334L29.9333 224.415Z" fill="#2981E2"/>
<path d="M372.453 48.1667L1427.32 48.2404L1427.24 48.3456L1413.97 63.9721H1335.14L372.601 48.3456L372.453 48.1667Z" fill="#2981E2"/>
<path d="M1675.02 43.8103C1675.02 42.5896 1675.09 41.3795 1675.23 40.2009C1675.44 38.1911 1675.85 36.2338 1676.43 34.3923C1677.35 31.4038 1678.71 28.6468 1680.4 26.2581C1684.68 20.1759 1691.13 16.314 1698.35 16.314C1711.24 16.314 1721.69 28.6257 1721.69 43.8103C1721.69 58.0898 1712.45 69.8334 1700.62 71.1803C1699.87 71.2645 1699.12 71.3066 1698.35 71.3066C1697.46 71.3066 1696.57 71.2435 1695.69 71.1172C1685.33 69.7387 1677.03 60.3523 1675.33 48.3456C1675.13 46.8724 1675.02 45.3571 1675.02 43.8103V43.8103Z" fill="#F15A29"/>
<path d="M1698.36 56.9429C1704.52 56.9429 1709.51 51.0632 1709.51 43.8103C1709.51 36.5574 1704.52 30.6777 1698.36 30.6777C1692.21 30.6777 1687.22 36.5574 1687.22 43.8103C1687.22 51.0632 1692.21 56.9429 1698.36 56.9429Z" fill="#2981E2"/>
<path d="M13.1882 1722.91C13.1882 1709.21 21.6841 1697.86 32.8047 1695.77C34.0085 1695.54 35.2518 1695.42 36.5149 1695.42C36.9195 1695.42 37.3339 1695.43 37.7384 1695.45C47.4579 1696.04 55.6084 1703.65 58.6081 1714.06C59.358 1716.61 59.7824 1719.35 59.8317 1722.19C59.8515 1722.42 59.8514 1722.66 59.8514 1722.9C59.8514 1724.64 59.7133 1726.35 59.4469 1728C58.9831 1730.89 58.1345 1733.64 56.9603 1736.13C52.9935 1744.64 45.3265 1750.39 36.5149 1750.39C23.628 1750.39 13.1882 1738.08 13.1882 1722.9V1722.91Z" fill="#F15A29"/>
<path d="M36.5149 1736.05C42.6676 1736.05 47.6552 1730.17 47.6552 1722.92C47.6552 1715.66 42.6676 1709.78 36.5149 1709.78C30.3622 1709.78 25.3745 1715.66 25.3745 1722.92C25.3745 1730.17 30.3622 1736.05 36.5149 1736.05Z" fill="#2981E2"/>
<path d="M167.811 1757.38H182.445L204.38 1740.56H167.811V1757.38Z" fill="#2981E2"/>
<path d="M124.622 1757.38H161.19V1740.55H124.622V1757.38Z" fill="#F15A29"/>
<path d="M81.4415 1757.38H118.01V1740.55H81.4415V1757.38Z" fill="#2981E2"/>
<path d="M1670.33 528.705L1665.97 520.624V903.878L1670.33 895.796V528.705Z" fill="#F15A29"/>
<path d="M1678.05 542.974L1674.35 536.124V888.378L1678.05 881.527V542.974Z" fill="#F15A29"/>
<path d="M1684.64 555.191L1681.47 549.309V875.193L1684.64 869.31V555.191Z" fill="#F15A29"/>
<path d="M1690.35 565.756L1687.6 560.653V863.838L1690.35 858.745V565.756Z" fill="#F15A29"/>
<path d="M62.1012 1225.85L66.4725 1233.93V850.674L62.1012 858.745V1225.85Z" fill="#F15A29"/>
<path d="M54.3948 1211.58L58.0951 1218.42V866.174L54.3948 873.025V1211.58Z" fill="#F15A29"/>
<path d="M47.8033 1199.36L50.9707 1205.24V879.359L47.8033 885.242V1199.36Z" fill="#F15A29"/>
<path d="M42.09 1188.79L44.843 1193.89V890.703L42.09 895.807V1188.79Z" fill="#F15A29"/>
<path d="M27.871 1411.1V1356.17L67.3409 1302.01V1258.47L72.2746 1250.71L77.2083 1242.97L82.1421 1235.21V1308.47L77.1195 1315.36L75.146 1318.07L42.6722 1362.63V1434.36L37.7384 1426.6L32.8047 1418.86L27.871 1411.1Z" fill="#F15A29"/>
<path d="M1651.29 1000.89V894.302L1656.22 902.057L1661.15 909.802L1666.09 917.557V996.721L1695.69 1065.67V1141.6L1690.76 1149.36L1685.82 1157.09L1680.89 1164.85V1069.81L1651.29 1000.89Z" fill="#F15A29"/>
<path d="M1545.62 1707.67H1602.86L1703.09 1582.75V1503.24L1712.96 1495.49L1722.83 1487.74L1732.69 1479.98V1596.62L1615.61 1742.54H1565.35L1558.77 1730.92L1552.2 1719.3L1545.62 1707.67Z" fill="#F15A29"/>
<path d="M0.735458 282.406V165.771L117.823 19.8601H168.078L174.66 31.4879L181.231 43.1157L187.813 54.733H130.572L70.8537 129.161L30.3379 179.64V259.151L20.4704 266.906L10.6029 274.651L0.735458 282.406Z" fill="#F15A29"/>
<path d="M291.48 68.9075L289.083 71.5909H364.421L377.673 87.2173H1422.15L1435.42 71.5909H1662.35C1665.86 77.873 1670.52 83.1871 1675.97 87.1121V277.113L1659.91 296.034V377.281L1636.57 404.777V438.429L1631.56 445.311V596.967L1636.5 589.212V832.27L1631.56 824.514V1006.42L1661.16 1075.36V1234.63L1666.1 1226.88V1305.03L1695.7 1354.27V1372.19L1693.23 1369.28V1483.05L1683.37 1490.8V1528.83L1674.37 1539.44V1566.94L1642.85 1604.06V1624L1594.36 1684.41H1551.73L1551.71 1684.38H1451.84L1455.26 1689.79L1452.12 1693.48H1441.97L1444.36 1690.81H1369.03L1355.76 1675.17H311.275L298.003 1690.81H69.9064C66.4528 1685.8 62.2295 1681.64 57.4635 1678.52V1485.26L73.508 1466.35V1385.1L96.8446 1357.6V1323.96L101.867 1317.07V1165.41L96.9334 1173.17V930.112L101.867 937.867V755.958L72.2647 687.022V527.748L67.331 535.503V457.35L37.7286 408.113V390.193L40.1954 393.097V279.334L50.0629 271.578V233.549L59.062 222.942V195.445L90.5787 158.31V138.39L139.058 77.9677H181.685L181.705 77.9888H281.583L278.169 72.58L281.307 68.8865H291.471L291.48 68.9075Z" stroke="#F15A29" stroke-width="5" stroke-miterlimit="10"/>
</svg>
