<svg width="1615" height="1574" viewBox="0 0 1615 1574" fill="none" xmlns="http://www.w3.org/2000/svg">
<g style="mix-blend-mode:overlay">
<path d="M0.940308 310.83V197.793L10.8078 190.037V149.208L19.8069 138.601V111.105L51.3236 73.9698V53.6711L88.5733 7.24411H112.946L122.715 7.26516H261.895L257.84 0.846191H297.241L310.493 16.4727H1371.32L1384.59 0.846191H1593.93C1594.99 2.15103 1596.09 3.40326 1597.22 4.61339V173.485L1581.17 192.405V273.652L1557.83 301.149V335.832L1552.82 342.714V572.765L1557.75 565.01V668.492L1552.82 660.737V917.98L1582.42 986.915V1210.43L1587.35 1202.68V1218.44L1614.49 1263.57V1376.61L1604.62 1384.36V1425.19L1595.62 1435.8V1463.3L1564.12 1500.42V1520.74L1526.86 1567.17H1502.7L1492.7 1567.14H1353.52L1357.59 1573.57H1318.19L1304.92 1557.93H244.104L230.833 1573.57H19.274C18.9188 1573.2 18.5636 1572.83 18.2084 1572.47V1400.91L34.2529 1382.01V1300.76L57.5894 1273.26V1238.59L62.612 1231.7V1001.66L57.6783 1009.41V905.92L62.612 913.676V656.433L33.0096 587.498V363.981L28.0759 371.736V355.973L0.940308 310.84V310.83Z" fill="white"/>
</g>
</svg>
