<svg width="1420" height="563" viewBox="0 0 1420 563" fill="none" xmlns="http://www.w3.org/2000/svg">
<g style="mix-blend-mode:overlay" opacity="0.2">
<path d="M1138.15 563H1240.93L1247.98 554.413H1285.11L1294.75 546.579H1319.75L1353.51 519.151H1371.97L1414.18 486.742V465.531L1414.16 457.035V335.924L1420 339.449V305.162L1405.79 293.632V196.575L1420 185.035V2.8623C1418.82 1.94837 1417.67 0.994274 1416.57 0H1304.6L0 547.975H146.927L164.121 534.015H237.998L262.997 513.708H294.52L300.792 509.339H509.969L502.92 513.628H597.036L589.988 509.339H823.901L886.585 535.1H1089.83L1082.78 539.388H1097.12L1138.17 563H1138.15Z" fill="white"/>
</g>
</svg>
