<svg width="1429" height="583" viewBox="0 0 1429 583" fill="none" xmlns="http://www.w3.org/2000/svg">
<g style="mix-blend-mode:overlay">
<path d="M1147.36 583H1250.07L1257.11 574.339H1294.21L1303.85 566.438H1328.83L1362.56 538.774H1381L1423.19 506.086V484.692L1423.17 476.122V353.969L1429 357.525V322.942L1414.8 311.314V213.421L1429 201.782V18.0408C1427.82 17.1191 1426.67 16.1567 1425.57 15.1539H1272.13L1254.94 29.2442H1181.11L1156.13 49.7263H1124.62L1118.37 54.1225H909.337L916.381 49.7972H822.345L829.389 54.1225H595.651L533.015 28.1401H329.92L336.963 23.8147H322.634L281.673 0H178.961L171.918 8.66082H134.816L125.182 16.5619H100.202L66.4757 44.2158H48.0052L5.81423 76.9142V98.1155L5.84446 106.888V229.041L0 225.475V260.058L14.2081 271.707V369.589L0 381.238V566.914C0.342606 567.228 0.665059 567.542 0.997588 567.846H156.883L174.064 553.766H247.886L272.866 533.284H304.365L310.633 528.877H519.653L512.609 533.203H606.655L599.611 528.877H833.349L895.986 554.86H1099.08L1092.04 559.185H1106.37L1147.38 583H1147.36Z" fill="white"/>
</g>
</svg>
