<svg width="57" height="59" viewBox="0 0 57 59" fill="none" xmlns="http://www.w3.org/2000/svg">
<g filter="url(#filter0_dii_261_390)">
<path fill-rule="evenodd" clip-rule="evenodd" d="M28.2354 5.44604C31.8746 5.31062 35.5139 5.41218 39.1363 5.73379C40.8967 5.71687 42.6402 6.02155 44.2821 6.63092C46.5503 7.66346 48.3784 9.44078 49.4278 11.6582C50.0541 13.2663 50.3588 14.9759 50.3419 16.6855C50.3419 19.343 50.6466 20.2401 50.6466 27.3325C50.782 30.8872 50.6804 34.4418 50.3419 37.9795C50.3588 39.6891 50.0541 41.3987 49.4278 43.0068C48.3784 45.2242 46.5503 47.0015 44.2821 48.0341C42.6402 48.6435 40.8967 48.9481 39.1363 48.9312C36.4111 48.9312 35.497 49.219 28.2354 49.219C24.5961 49.3544 20.9568 49.2528 17.3344 48.9312C15.5741 48.9481 13.8306 48.6435 12.1887 48.0341C9.92047 47.0015 8.09237 45.2242 7.0429 43.0068C6.4166 41.3987 6.11192 39.6891 6.12885 37.9795C6.12885 35.322 5.82416 34.4249 5.82416 27.3325C5.68875 23.7779 5.79031 20.2232 6.12885 16.6855C6.11192 14.9759 6.4166 13.2663 7.0429 11.6582C7.56763 10.558 8.27856 9.55927 9.15876 8.696C9.86969 7.66346 10.953 6.91868 12.1887 6.63092C13.8306 6.02155 15.5741 5.71687 17.3344 5.73379C20.9568 5.39526 24.5961 5.31062 28.2354 5.44604V5.44604ZM28.2354 0.706507C24.4945 0.571092 20.7537 0.672654 17.0298 0.994264C14.7616 0.994264 12.4934 1.38358 10.3775 2.17915C6.68744 3.43174 3.79294 6.27545 2.52342 9.88088C1.55859 11.9121 1.15234 14.1634 1.30468 16.3808C0.898439 23.6763 0.898439 30.9887 1.30468 38.2842C1.30468 40.5016 1.71093 42.719 2.52342 44.7841C3.79294 48.3896 6.70436 51.2333 10.3944 52.4689C12.5272 53.2645 14.7785 53.6538 17.0467 53.6538C20.7706 53.9754 24.5115 54.077 28.2354 53.9416C31.9762 54.077 35.7171 53.9754 39.441 53.6538C41.7092 53.6538 43.9774 53.2645 46.0932 52.4689C49.7833 51.2333 52.6947 48.3896 53.9642 44.7841C54.7767 42.7021 55.183 40.5016 55.183 38.2842C55.183 35.322 55.4877 34.4418 55.4877 27.3494C55.6231 23.6932 55.5215 20.037 55.183 16.3977C55.183 14.1803 54.7767 11.9629 53.9642 9.89781C52.6947 6.29238 49.7833 3.44866 46.0932 2.213C43.9604 1.41744 41.7092 1.02812 39.441 1.02812C35.7171 0.68958 31.9762 0.588019 28.2354 0.706507ZM28.2354 13.7233C20.669 13.6048 14.44 19.4954 14.3215 26.8924V27.3325C14.3215 34.848 20.5506 40.9417 28.2354 40.9417C35.9202 40.9417 42.1493 34.848 42.1493 27.3325C42.1493 19.817 35.9202 13.7233 28.2354 13.7233V13.7233ZM28.2354 36.2022C23.3096 36.2868 19.2472 32.4614 19.1626 27.6541V27.3325C19.0779 22.5253 22.988 18.5474 27.9138 18.4628H28.2523C33.178 18.3782 37.2405 22.2037 37.3251 27.0109V27.3325C37.4097 32.1397 33.4996 36.1176 28.5739 36.2022H28.2354V36.2022ZM42.7586 9.88088C40.9136 9.88088 39.424 11.3366 39.424 13.1308C39.424 14.9251 40.9136 16.3808 42.7586 16.3808C44.6037 16.3808 46.0932 14.9251 46.0932 13.1308C46.0932 11.3366 44.6037 9.88088 42.7586 9.88088" fill="#0D3864"/>
</g>
<defs>
<filter id="filter0_dii_261_390" x="-1" y="0.648071" width="57.5457" height="58.3519" filterUnits="userSpaceOnUse" color-interpolation-filters="sRGB">
<feFlood flood-opacity="0" result="BackgroundImageFix"/>
<feColorMatrix in="SourceAlpha" type="matrix" values="0 0 0 0 0 0 0 0 0 0 0 0 0 0 0 0 0 0 127 0" result="hardAlpha"/>
<feOffset dy="4"/>
<feGaussianBlur stdDeviation="0.5"/>
<feComposite in2="hardAlpha" operator="out"/>
<feColorMatrix type="matrix" values="0 0 0 0 0 0 0 0 0 0 0 0 0 0 0 0 0 0 0.25 0"/>
<feBlend mode="normal" in2="BackgroundImageFix" result="effect1_dropShadow_261_390"/>
<feBlend mode="normal" in="SourceGraphic" in2="effect1_dropShadow_261_390" result="shape"/>
<feColorMatrix in="SourceAlpha" type="matrix" values="0 0 0 0 0 0 0 0 0 0 0 0 0 0 0 0 0 0 127 0" result="hardAlpha"/>
<feOffset dy="-3"/>
<feComposite in2="hardAlpha" operator="arithmetic" k2="-1" k3="1"/>
<feColorMatrix type="matrix" values="0 0 0 0 0 0 0 0 0 0 0 0 0 0 0 0 0 0 0.85 0"/>
<feBlend mode="normal" in2="shape" result="effect2_innerShadow_261_390"/>
<feColorMatrix in="SourceAlpha" type="matrix" values="0 0 0 0 0 0 0 0 0 0 0 0 0 0 0 0 0 0 127 0" result="hardAlpha"/>
<feOffset dx="-2"/>
<feGaussianBlur stdDeviation="1"/>
<feComposite in2="hardAlpha" operator="arithmetic" k2="-1" k3="1"/>
<feColorMatrix type="matrix" values="0 0 0 0 0.7375 0 0 0 0 0.7375 0 0 0 0 0.7375 0 0 0 0.9 0"/>
<feBlend mode="normal" in2="effect2_innerShadow_261_390" result="effect3_innerShadow_261_390"/>
</filter>
</defs>
</svg>
