<svg width="1589" height="679" viewBox="0 0 1589 679" fill="none" xmlns="http://www.w3.org/2000/svg">
<path d="M687.35 66.2599H1177.36L1177.46 66.1899L1179.9 64.4799L1226.21 32.0599H1564.9V27.7899H1224.26L1175.42 61.9799H688.6L626.44 36.3399H420.18L375.78 10.6899H292.8V14.9599H374.12L418.51 40.6099H625.19L687.35 66.2599Z" fill="#2981E2"/>
<path d="M35.67 207.16H30.43V635.95H35.67V207.16Z" fill="#2981E2"/>
<path d="M23.09 450.97L30.43 441.52L35.67 434.76L43.01 425.32V292.65L40.6 294.72L39.27 295.87L35.67 298.95L30.43 303.45L23.09 309.75V450.97Z" fill="#2981E2"/>
<path d="M23.09 650.33H43.01V473.3L35.67 482.75L30.43 489.5L23.09 498.95V650.33Z" fill="#2981E2"/>
<path d="M1113.24 70.53H1179.3L1185.51 66.19L1187.95 64.48L1228.15 36.34H1292.82L1285.83 32.06L1278.84 27.79L1271.85 23.51H1222.32L1173.47 57.71H1134.21L1127.22 61.98L1120.24 66.26L1113.24 70.53Z" fill="#F15A29"/>
<path d="M433.41 9.20996H427.12V32.14H433.41V9.20996Z" fill="#2981E2"/>
<path d="M418.61 9.20996V29.68L412.32 26.07V9.20996H418.61Z" fill="#2981E2"/>
<path d="M403.8 9.20996V21.2L397.51 17.6V9.20996H403.8Z" fill="#2981E2"/>
<path d="M389 9.20996V12.72L382.86 9.20996H389Z" fill="#2981E2"/>
<path d="M447.47 9.20996H441.18V32.14H447.47V9.20996Z" fill="#2981E2"/>
<path d="M461.53 9.20996H455.24V32.14H461.53V9.20996Z" fill="#2981E2"/>
<path d="M475.59 11.51V32.14H469.3V9.95996L475.59 11.51Z" fill="#2981E2"/>
<path d="M489.64 14.96V32.14H483.35V13.42L489.64 14.96Z" fill="#2981E2"/>
<path d="M503.71 18.43V32.14H497.42V16.88L503.71 18.43Z" fill="#2981E2"/>
<path d="M517.77 21.88V32.14H511.48V20.33L517.77 21.88Z" fill="#2981E2"/>
<path d="M531.83 25.33V32.14H525.54V23.79L531.83 25.33Z" fill="#2981E2"/>
<path d="M545.89 28.79V32.14H539.6V27.24L545.89 28.79Z" fill="#2981E2"/>
<path d="M725.83 57.64L631.62 17.1H542.25V29.42H544.35V18.81H631.1L724.86 59.15L725.83 57.64Z" fill="#2981E2"/>
<path d="M212.14 17.1H303.29L292.8 8.55005H212.14V17.1Z" fill="#2981E2"/>
<path d="M38.29 215.71V144.99H27.81V207.16L38.29 215.71Z" fill="#2981E2"/>
<path d="M1176.39 66.19H1214.94L1239.73 45.97H1312.99L1330.05 32.06L1331.24 31.09L1329.76 29.87L1327.08 32.06L1312.12 44.26H1238.86L1214.07 64.48H1176.39V66.19Z" fill="#2981E2"/>
<path d="M17.27 125.48L17.33 101.45L67.1 62.92L46.13 60.71L0 96.31V115.02L17.27 125.48Z" fill="#2981E2"/>
<path d="M48.81 169.51V165.39L41.78 161.12V165.24L48.81 169.51Z" fill="#2981E2"/>
<path d="M48.81 177.47V173.34L41.78 169.07V173.2L48.81 177.47Z" fill="#2981E2"/>
<path d="M48.81 185.43V181.3L41.78 177.03V181.16L48.81 185.43Z" fill="#2981E2"/>
<path d="M48.81 193.39V189.26L41.78 184.99V189.12L48.81 193.39Z" fill="#2981E2"/>
<path d="M48.81 201.34V197.22L41.78 192.95V197.07L48.81 201.34Z" fill="#2981E2"/>
<path d="M48.81 209.3V205.18L41.78 200.91V205.03L44.25 206.52L46.34 207.81L48.81 209.3Z" fill="#2981E2"/>
<path d="M38.5 295.87H40.6V236.04L46.34 231.34V205.11H44.25V230.64L38.5 235.33V295.87Z" fill="#2981E2"/>
<path d="M115.89 60.76L133.52 60.75L167 33.4501H191.79L201.78 25.3L161.41 25.65L115.89 60.76Z" fill="#2981E2"/>
<path d="M42.93 413.55L43.01 413.48L57.11 401.99V333.69L43.01 322.19L42.86 322.07L42.93 413.55Z" fill="#2981E2"/>
<path d="M1212.26 667.45H1295.24V663.18H1213.93L1169.53 637.53H962.86L900.7 611.88H410.68L410.58 611.96L408.13 613.67L361.84 646.08H23.14V650.35H363.78L412.62 616.15H899.44L961.61 641.8H1167.86L1212.26 667.45Z" fill="#2981E2"/>
<path d="M1557.6 42.2H1552.36V470.99H1557.6V42.2Z" fill="#2981E2"/>
<path d="M1545.02 385.49L1547.45 383.42L1548.78 382.27L1552.36 379.19L1557.6 374.7L1564.94 368.39V227.17L1557.6 236.62L1552.36 243.37L1545.02 252.82V385.49Z" fill="#2981E2"/>
<path d="M1545.02 204.84L1552.36 195.39L1557.6 188.64L1564.94 179.19V27.8101H1545.02V204.84Z" fill="#2981E2"/>
<path d="M960.35 646.08H1028.83L1035.82 641.8L1042.8 637.53L1049.8 633.25H964.1L901.95 607.6H805.84L812.84 611.88L819.82 616.15L826.81 620.43H898.19L960.35 646.08Z" fill="#F15A29"/>
<path d="M1154.63 668.94H1160.92V646.01H1154.63V668.94Z" fill="#2981E2"/>
<path d="M1169.44 668.93V648.46L1175.73 652.07V668.93H1169.44Z" fill="#2981E2"/>
<path d="M1184.24 668.93V656.94L1190.53 660.55V668.93H1184.24Z" fill="#2981E2"/>
<path d="M1199.04 668.93V665.42L1205.18 668.93H1199.04Z" fill="#2981E2"/>
<path d="M1140.57 668.94H1146.86V646.01H1140.57V668.94Z" fill="#2981E2"/>
<path d="M1126.52 668.94H1132.81V646.01H1126.52V668.94Z" fill="#2981E2"/>
<path d="M1112.46 666.63V646H1118.75V668.18L1112.46 666.63Z" fill="#2981E2"/>
<path d="M1098.4 663.18V646H1104.69V664.72L1098.4 663.18Z" fill="#2981E2"/>
<path d="M1084.33 659.72V646H1090.62V661.26L1084.33 659.72Z" fill="#2981E2"/>
<path d="M1070.27 656.26V646H1076.56V657.81L1070.27 656.26Z" fill="#2981E2"/>
<path d="M1056.21 652.81V646H1062.5V654.36L1056.21 652.81Z" fill="#2981E2"/>
<path d="M1042.15 649.35V646H1048.44V650.9L1042.15 649.35Z" fill="#2981E2"/>
<path d="M1045.79 661.04V648.72H1043.69V659.33H956.94L863.19 618.99L862.21 620.51L956.42 661.04H1045.79Z" fill="#2981E2"/>
<path d="M1295.24 669.59H1375.9V661.04H1284.76L1295.24 669.59Z" fill="#2981E2"/>
<path d="M1549.74 533.15H1560.23V470.99L1549.74 462.44V533.15Z" fill="#2981E2"/>
<path d="M258.28 648.27L260.96 646.08L275.93 633.89H349.18L373.98 613.67H411.66V611.96H373.11L348.31 632.18H275.05L258.01 646.08L256.8 647.06L258.28 648.27Z" fill="#2981E2"/>
<path d="M1570.78 552.66L1570.71 576.69L1520.95 615.22L1541.91 617.44L1588.04 581.83V563.12L1570.78 552.66Z" fill="#2981E2"/>
<path d="M1546.26 517.03V512.91L1539.24 508.63V512.75L1546.26 517.03Z" fill="#2981E2"/>
<path d="M1546.26 509.07V504.95L1539.24 500.67V504.79L1546.26 509.07Z" fill="#2981E2"/>
<path d="M1546.26 501.11V496.99L1539.24 492.71V496.83L1546.26 501.11Z" fill="#2981E2"/>
<path d="M1546.26 493.15V489.03L1539.24 484.75V488.88L1546.26 493.15Z" fill="#2981E2"/>
<path d="M1546.26 485.19V481.07L1539.24 476.79V480.92L1546.26 485.19Z" fill="#2981E2"/>
<path d="M1546.26 477.24V473.11L1543.8 471.61L1541.7 470.33L1539.24 468.83V472.96L1546.26 477.24Z" fill="#2981E2"/>
<path d="M1541.7 473.03H1543.8V447.5L1549.54 442.81V382.27H1547.45V442.1L1541.7 446.79V473.03Z" fill="#2981E2"/>
<path d="M1386.26 652.84L1426.63 652.49L1472.15 617.38H1454.53L1421.04 644.69H1396.25L1386.26 652.84Z" fill="#2981E2"/>
<path d="M1545.18 356.07L1545.12 264.58L1545.02 264.66L1530.93 276.15V344.46L1545.02 355.94L1545.18 356.07Z" fill="#2981E2"/>
<path d="M1549.11 49.97C1550.21 49.97 1551.3 49.91 1552.36 49.79C1554.17 49.6 1555.93 49.25 1557.6 48.75C1560.29 47.95 1562.78 46.78 1564.94 45.31C1570.42 41.6 1573.9 36.01 1573.9 29.75C1573.9 18.58 1562.8 9.53003 1549.11 9.53003C1536.24 9.53003 1525.65 17.54 1524.43 27.78C1524.36 28.43 1524.31 29.08 1524.31 29.75C1524.31 30.53 1524.36 31.3 1524.48 32.06C1525.73 41.04 1534.19 48.23 1545.02 49.7C1546.35 49.88 1547.71 49.97 1549.11 49.97V49.97Z" fill="#F15A29"/>
<path d="M1549.11 39.41C1555.65 39.41 1560.95 35.085 1560.95 29.75C1560.95 24.4149 1555.65 20.09 1549.11 20.09C1542.57 20.09 1537.27 24.4149 1537.27 29.75C1537.27 35.085 1542.57 39.41 1549.11 39.41Z" fill="#2981E2"/>
<path d="M35.03 667.35C47.38 667.35 57.61 659.99 59.5 650.35C59.71 649.31 59.81 648.23 59.81 647.14C59.81 646.79 59.8 646.43 59.78 646.08C59.25 637.66 52.39 630.6 43.01 628C40.7 627.35 38.24 626.98 35.67 626.94C35.46 626.92 35.24 626.92 35.03 626.92C33.46 626.92 31.92 627.04 30.43 627.27C27.82 627.67 25.35 628.41 23.09 629.42C15.43 632.86 10.24 639.5 10.24 647.13C10.24 658.3 21.34 667.34 35.03 667.34V667.35Z" fill="#F15A29"/>
<path d="M35.03 656.79C41.5691 656.79 46.87 652.465 46.87 647.13C46.87 641.795 41.5691 637.47 35.03 637.47C28.4909 637.47 23.19 641.795 23.19 647.13C23.19 652.465 28.4909 656.79 35.03 656.79Z" fill="#2981E2"/>
<path d="M3.95 533.37V520.7L19.12 501.69V533.37H3.95Z" fill="#2981E2"/>
<path d="M19.12 570.79L19.12 539.11H3.94997L3.94997 570.79H19.12Z" fill="#F15A29"/>
<path d="M19.12 608.2L19.12 576.52H3.94998L3.94998 608.2H19.12Z" fill="#2981E2"/>
<path d="M1111.88 54.03L1119.16 57.81H773.57L780.86 54.03H1111.88Z" fill="#F15A29"/>
<path d="M1099 47.35L1105.18 50.56H787.55L793.73 47.35H1099Z" fill="#F15A29"/>
<path d="M1087.99 41.64L1093.29 44.39H799.44L804.74 41.64H1087.99Z" fill="#F15A29"/>
<path d="M1078.46 36.6899L1083.06 39.0799H809.67L814.27 36.6899H1078.46Z" fill="#F15A29"/>
<path d="M483.24 624.96L475.96 621.18H821.55L814.26 624.96H483.24Z" fill="#F15A29"/>
<path d="M496.11 631.64L489.94 628.44H807.57L801.39 631.64H496.11Z" fill="#F15A29"/>
<path d="M507.13 637.36L501.83 634.61H795.68L790.38 637.36H507.13Z" fill="#F15A29"/>
<path d="M516.66 642.31L512.06 639.92H785.45L780.85 642.31H516.66Z" fill="#F15A29"/>
<path d="M316.19 654.63H365.73L414.56 620.43H453.83L460.83 616.15L467.81 611.88L474.8 607.6H408.74L402.53 611.96L400.08 613.67L359.9 641.8H295.23L302.22 646.08L309.2 650.35L316.19 654.63Z" fill="#F15A29"/>
<path d="M686.1 70.5301H782.2L775.21 66.2601L768.23 61.9801L761.23 57.7101H689.85L627.68 32.0601H559.21L552.22 36.3401L545.24 40.6101L538.25 44.8901H623.94L686.1 70.5301Z" fill="#F15A29"/>
<path d="M1333.97 678.14H1439.14L1570.71 576.69V533.15L1560.23 527.44L1549.74 521.75L1539.26 516.05V565.64L1472.15 617.38L1426.63 652.49H1354.93L1347.94 661.04L1340.96 669.59L1333.97 678.14Z" fill="#F15A29"/>
<path d="M48.78 162.09V112.5L161.41 25.65H233.11L240.1 17.1L247.08 8.55L254.08 0H148.91L17.32 101.45V144.99L27.81 150.7L38.29 156.39L48.78 162.09Z" fill="#F15A29"/>
<path d="M1526.48 426.22L1524.06 428.3V363.03L1509.97 351.55V269.08L1524.06 257.59V60.9601C1518.39 57.9201 1513.6 53.8801 1510.06 49.1601H1338.73L1321.67 63.0701H1248.41L1223.62 83.2901H1193.27L1187.06 87.6301H1050.31L1057.3 83.3601H838.13L845.12 87.6301H681.09L618.93 61.9801H475.31L482.3 57.7101H411.83L367.43 32.0601H351.27L353.89 34.2001H251.3L244.31 42.7501H210.02L200.46 50.5501H175.67L142.19 77.8501H124.2L69.72 119.86V156.8L69.75 156.82V243.36L64.87 240.4L61.54 243.12V251.92L63.95 249.85V315.12L78.05 326.62V409.08L63.95 420.58V618.21C68.47 621.2 72.22 624.86 75.03 628.99H249.32L266.37 615.09H339.63L364.42 594.87H394.76L400.98 590.52H537.73L530.74 594.79H749.91L742.92 590.52H906.95L969.11 616.17H1112.73L1105.74 620.44H1176.21L1220.61 646.09H1236.77L1234.15 643.95H1336.74L1343.73 635.4H1378.02L1387.58 627.6H1412.37L1445.85 600.29H1463.82L1518.3 558.28V521.35H1518.28V434.79L1523.16 437.75L1526.49 435.03V426.22H1526.48Z" stroke="#F15A29" stroke-width="4.21" stroke-miterlimit="10"/>
</svg>
