<svg width="358" height="230" viewBox="0 0 358 230" fill="none" xmlns="http://www.w3.org/2000/svg">
<path d="M27.6649 0.0175793L52.7127 0.0175804C68.8777 0.0175811 79.2787 9.28569 79.2787 28.9264L79.2787 149.403C79.3869 150.089 79.2191 150.789 78.812 151.351C78.4048 151.913 77.7916 152.29 77.1068 152.401L77.0851 152.401C76.8224 152.457 76.5508 152.457 76.288 152.401L58.3356 152.401C57.6365 152.5 56.9263 152.321 56.3576 151.902C55.789 151.483 55.4075 150.857 55.295 150.16C55.2588 149.895 55.2588 149.626 55.295 149.362L55.295 113.086L24.2485 113.086L24.2485 149.36C24.348 150.059 24.1692 150.77 23.7504 151.339C23.3317 151.908 22.7065 152.29 22.0094 152.403C21.7451 152.441 21.4766 152.441 21.2123 152.403L4.09604 152.403C3.39693 152.502 2.68668 152.323 2.11807 151.904C1.54946 151.485 1.1679 150.859 1.05544 150.162C1.01743 149.897 1.01743 149.629 1.05544 149.364L1.05545 28.9243C0.907764 9.28574 11.6866 0.0175786 27.6649 0.0175793ZM24.2507 28.9264L24.2507 92.4307L55.2907 92.4307L55.2907 28.9264C55.2907 23.3033 52.7106 20.7234 46.8683 20.7234L32.4082 20.7234C26.7918 20.7082 24.2486 23.299 24.2486 28.9222L24.2507 28.9264Z" fill="white"/>
<path d="M167.892 131.699C168.532 131.635 169.172 131.828 169.67 132.236C170.169 132.643 170.485 133.232 170.55 133.872C170.607 134.149 170.607 134.433 170.55 134.709L168.613 149.635C168.527 150.459 168.121 151.216 167.482 151.742C166.843 152.269 166.023 152.522 165.199 152.448L105.35 152.448C104.65 152.548 103.94 152.369 103.372 151.95C102.803 151.531 102.421 150.905 102.309 150.207C102.271 149.943 102.271 149.674 102.309 149.409L102.309 4.32088C102.309 2.14727 103.373 1.32129 105.35 1.32129L123.452 1.32129C125.389 1.32129 126.492 2.15597 126.492 4.32088L126.492 131.71L167.892 131.699Z" fill="white"/>
<path d="M257.835 44.0373C257.85 44.446 257.785 44.8538 257.643 45.2372C257.501 45.6206 257.284 45.9722 257.006 46.272C256.729 46.5717 256.394 46.8137 256.023 46.9841C255.651 47.1546 255.25 47.25 254.842 47.2651V47.2651L237.537 49.0041C237.216 49.0771 236.884 49.086 236.559 49.0304C236.235 48.9748 235.925 48.8558 235.646 48.6801C235.368 48.5045 235.127 48.2756 234.937 48.0067C234.747 47.7378 234.612 47.4343 234.539 47.1131V47.1131C234.483 46.8121 234.483 46.5032 234.539 46.2022L234.539 28.9221C234.723 27.8034 234.638 26.6568 234.291 25.5776C233.944 24.4984 233.345 23.5174 232.544 22.7157C231.743 21.914 230.763 21.3149 229.684 20.9677C228.606 20.6204 227.461 20.5351 226.343 20.7188L212.832 20.7188C211.717 20.5417 210.576 20.6321 209.502 20.9823C208.429 21.3325 207.454 21.9324 206.657 22.7332C205.861 23.534 205.265 24.5126 204.92 25.5885C204.575 26.6643 204.49 27.807 204.672 28.9221L204.672 124.778C204.49 125.893 204.575 127.036 204.92 128.112C205.265 129.187 205.861 130.166 206.657 130.967C207.454 131.768 208.429 132.368 209.502 132.718C210.576 133.068 211.717 133.159 212.832 132.982L226.456 132.982C227.574 133.165 228.719 133.08 229.797 132.733C230.876 132.385 231.856 131.786 232.657 130.984C233.458 130.183 234.057 129.202 234.404 128.122C234.751 127.043 234.836 125.897 234.652 124.778L234.652 95.8691L223 95.8691C221.028 95.8691 219.743 94.7695 219.96 92.8263L221.252 79.078C221.329 78.2851 221.706 77.5518 222.306 77.0286C222.906 76.5055 223.684 76.2324 224.479 76.2655L254.837 76.2655C255.25 76.1988 255.672 76.2318 256.07 76.3618C256.467 76.4919 256.827 76.7151 257.12 77.013C257.414 77.3108 257.632 77.6747 257.756 78.074C257.88 78.4733 257.907 78.8967 257.835 79.3086L257.835 124.887C257.835 144.523 247.284 153.828 231.271 153.828L207.37 153.828C191.166 153.828 180.615 144.523 180.615 124.887L180.615 28.9091C180.615 9.27272 191.166 4.61191e-07 207.37 1.1695e-06L231.26 2.21377e-06C247.464 2.92208e-06 257.824 9.26838 257.824 28.9091L257.835 44.0373Z" fill="white"/>
<path d="M277.681 124.785L277.681 28.9284C277.681 9.29199 288.269 0.0195317 304.247 0.0195324L331.23 0.0195336C347.436 0.0195343 357.985 9.28764 357.985 28.9284L357.985 124.785C357.985 144.421 347.434 153.726 331.23 153.726L304.251 153.726C288.269 153.733 277.681 144.421 277.681 124.785ZM301.856 28.9284L301.856 124.785C301.672 125.903 301.757 127.05 302.104 128.129C302.451 129.208 303.05 130.189 303.851 130.991C304.652 131.793 305.632 132.392 306.711 132.739C307.789 133.086 308.934 133.172 310.052 132.988L325.8 132.988C326.918 133.172 328.064 133.087 329.143 132.74C330.221 132.393 331.202 131.794 332.003 130.992C332.804 130.19 333.403 129.209 333.75 128.13C334.097 127.05 334.183 125.904 333.999 124.785L333.999 28.9284C334.183 27.8094 334.097 26.663 333.75 25.5836C333.403 24.5042 332.804 23.5229 332.003 22.7212C331.202 21.9195 330.221 21.3202 329.143 20.9732C328.064 20.6261 326.918 20.5412 325.8 20.7253L310.052 20.7253C308.934 20.5416 307.789 20.6267 306.711 20.974C305.632 21.3212 304.652 21.9206 303.851 22.7222C303.05 23.5239 302.451 24.5049 302.104 25.5841C301.757 26.6633 301.672 27.8096 301.856 28.9284V28.9284Z" fill="white"/>
<path d="M-6.86646e-05 169.902L14.1907 169.902L14.1907 215.744L39.4363 215.744L39.4363 227.955L-7.12021e-05 227.955L-6.86646e-05 169.902Z" fill="white"/>
<path d="M46.2884 169.902L84.6648 169.902L84.6648 182.509L60.4814 182.509L60.4814 192.943L82.5864 192.943L82.5864 205.289L60.4814 205.289L60.4814 215.722L85.7703 215.722L85.7703 227.933L46.2884 227.933L46.2884 169.902Z" fill="white"/>
<path d="M117.692 168L120.211 168L148.595 227.957L133.345 227.957L130.426 221.941L107.523 221.941L104.739 227.957L89.4842 227.957L117.692 168ZM125.604 211.807L118.928 197.116L112.165 211.807L125.604 211.807Z" fill="white"/>
<path d="M177.203 168.001C181.734 167.879 186.24 168.719 190.423 170.466C194.607 172.212 198.374 174.826 201.475 178.134L191.615 186.985C187.694 183.333 182.558 181.267 177.203 181.188C173.028 181.867 169.234 184.021 166.51 187.259C163.786 190.497 162.312 194.605 162.355 198.838C162.397 203.07 163.955 207.148 166.744 210.33C169.533 213.512 173.369 215.589 177.557 216.183C187.682 216.183 192.634 210.608 193.031 204.989L176.451 204.989L176.451 192.951L208.377 192.951L208.377 198.44C208.377 215.564 198.298 229.855 177.431 229.855C169.223 229.855 161.351 226.592 155.547 220.783C149.743 214.974 146.482 207.096 146.482 198.881C146.482 190.666 149.743 182.788 155.547 176.979C161.351 171.17 169.223 167.907 177.431 167.907L177.203 168.001Z" fill="white"/>
<path d="M217.566 169.902L231.668 169.902L231.668 206.273C231.668 214.016 235.339 216.707 240.245 216.707C245.151 216.707 249.089 214.051 249.089 206.273L249.089 169.902L263.279 169.902L263.279 208.397C263.279 222.115 253.072 229.857 240.29 229.857C227.509 229.857 217.608 221.76 217.608 208.397L217.566 169.902Z" fill="white"/>
<path d="M272.523 169.902L310.899 169.902L310.899 182.509L286.759 182.509L286.759 192.943L308.864 192.943L308.864 205.289L286.759 205.289L286.759 215.722L311.953 215.722L311.953 227.933L272.523 227.933L272.523 169.902Z" fill="white"/>
<path d="M332.392 211.099C332.381 212.698 333.002 214.238 334.12 215.381C335.237 216.525 336.762 217.18 338.36 217.204C339.021 217.297 339.694 217.259 340.341 217.091C340.987 216.924 341.594 216.631 342.128 216.229C342.661 215.826 343.11 215.323 343.449 214.747C343.787 214.171 344.01 213.534 344.102 212.872C344.136 212.636 344.153 212.398 344.152 212.159C344.152 207.734 338.447 206.538 333.727 204.901C323.954 201.45 318.561 196.894 318.561 186.937C318.7 181.835 320.853 176.997 324.549 173.48C328.245 169.964 333.182 168.057 338.28 168.176C351.146 168.176 357.203 176.362 358 187.115L344.737 187.115C344.845 185.64 344.363 184.183 343.398 183.063C342.433 181.943 341.063 181.253 339.589 181.144L339.52 181.144L338.725 181.144C337.253 181.015 335.791 181.476 334.659 182.426C333.527 183.377 332.818 184.738 332.689 186.211C332.672 186.38 332.668 186.55 332.668 186.719C332.668 191.145 338.017 191.851 342.875 193.312C353.22 196.409 357.996 202.161 357.996 211.231C357.938 213.747 357.387 216.226 356.372 218.528C355.357 220.83 353.899 222.91 352.081 224.648C350.263 226.386 348.121 227.749 345.776 228.658C343.432 229.567 340.932 230.006 338.419 229.948V229.948C333.543 230.314 328.722 228.727 325.016 225.535C321.309 222.344 319.021 217.81 318.655 212.931C318.606 212.28 318.592 211.627 318.614 210.975L332.392 211.099Z" fill="white"/>
<path d="M-6.86646e-05 169.902L14.1907 169.902L14.1907 215.744L39.4363 215.744L39.4363 227.955L-7.12021e-05 227.955L-6.86646e-05 169.902Z" fill="white"/>
<path d="M46.2884 169.902L84.6648 169.902L84.6648 182.509L60.4814 182.509L60.4814 192.943L82.5864 192.943L82.5864 205.289L60.4814 205.289L60.4814 215.722L85.7703 215.722L85.7703 227.933L46.2884 227.933L46.2884 169.902Z" fill="white"/>
<path d="M117.692 168L120.211 168L148.595 227.957L133.345 227.957L130.426 221.941L107.523 221.941L104.739 227.957L89.4842 227.957L117.692 168ZM125.604 211.807L118.928 197.116L112.165 211.807L125.604 211.807Z" fill="white"/>
<path d="M177.203 168.001C181.734 167.879 186.24 168.719 190.423 170.466C194.607 172.212 198.374 174.826 201.475 178.134L191.615 186.985C187.694 183.333 182.558 181.267 177.203 181.188C173.028 181.867 169.234 184.021 166.51 187.259C163.786 190.497 162.312 194.605 162.355 198.838C162.397 203.07 163.955 207.148 166.744 210.33C169.533 213.512 173.369 215.589 177.557 216.183C187.682 216.183 192.634 210.608 193.031 204.989L176.451 204.989L176.451 192.951L208.377 192.951L208.377 198.44C208.377 215.564 198.298 229.855 177.431 229.855C169.223 229.855 161.351 226.592 155.547 220.783C149.743 214.974 146.482 207.096 146.482 198.881C146.482 190.666 149.743 182.788 155.547 176.979C161.351 171.17 169.223 167.907 177.431 167.907L177.203 168.001Z" fill="white"/>
<path d="M217.566 169.902L231.668 169.902L231.668 206.273C231.668 214.016 235.339 216.707 240.245 216.707C245.151 216.707 249.089 214.051 249.089 206.273L249.089 169.902L263.279 169.902L263.279 208.397C263.279 222.115 253.072 229.857 240.29 229.857C227.509 229.857 217.608 221.76 217.608 208.397L217.566 169.902Z" fill="white"/>
<path d="M272.523 169.902L310.899 169.902L310.899 182.509L286.759 182.509L286.759 192.943L308.864 192.943L308.864 205.289L286.759 205.289L286.759 215.722L311.953 215.722L311.953 227.933L272.523 227.933L272.523 169.902Z" fill="white"/>
<path d="M332.392 211.099C332.381 212.698 333.002 214.238 334.12 215.381C335.237 216.525 336.762 217.18 338.36 217.204C339.021 217.297 339.694 217.259 340.341 217.091C340.987 216.924 341.594 216.631 342.128 216.229C342.661 215.826 343.11 215.323 343.449 214.747C343.787 214.171 344.01 213.534 344.102 212.872C344.136 212.636 344.153 212.398 344.152 212.159C344.152 207.734 338.447 206.538 333.727 204.901C323.954 201.45 318.561 196.894 318.561 186.937C318.7 181.835 320.853 176.997 324.549 173.48C328.245 169.964 333.182 168.057 338.28 168.176C351.146 168.176 357.203 176.362 358 187.115L344.737 187.115C344.845 185.64 344.363 184.183 343.398 183.063C342.433 181.943 341.063 181.253 339.589 181.144L339.52 181.144L338.725 181.144C337.253 181.015 335.791 181.476 334.659 182.426C333.527 183.377 332.818 184.738 332.689 186.211C332.672 186.38 332.668 186.55 332.668 186.719C332.668 191.145 338.017 191.851 342.875 193.312C353.22 196.409 357.996 202.161 357.996 211.231C357.938 213.747 357.387 216.226 356.372 218.528C355.357 220.83 353.899 222.91 352.081 224.648C350.263 226.386 348.121 227.749 345.776 228.658C343.432 229.567 340.932 230.006 338.419 229.948V229.948C333.543 230.314 328.722 228.727 325.016 225.535C321.309 222.344 319.021 217.81 318.655 212.931C318.606 212.28 318.592 211.627 318.614 210.975L332.392 211.099Z" fill="white"/>
</svg>
