<svg width="31" height="31" viewBox="0 0 31 31" fill="none" xmlns="http://www.w3.org/2000/svg">
<path d="M4.6538 4.65384C7.42273 1.59797 11.3824 -0.109295 15.5 0.00547929C19.6175 -0.109295 23.5916 1.58362 26.3462 4.65384C29.4164 7.40842 31.1093 11.3825 30.9945 15.5C31.1093 19.6175 29.4164 23.5916 26.3462 26.3462C23.5916 29.4164 19.6175 31.1093 15.5 30.9945C11.3824 31.1093 7.40839 29.4164 4.6538 26.3462C1.7414 23.4912 0.0628245 19.5888 0.0054373 15.5C-0.109337 11.3825 1.59793 7.42276 4.6538 4.65384ZM17.5659 27.8956C19.101 27.623 20.4783 26.7909 21.4396 25.5714C22.5012 23.9503 23.1181 22.0852 23.2473 20.1484C23.2473 18.9863 22.7882 17.8672 21.956 17.0495C21.1096 16.0882 19.8901 15.5143 18.5989 15.5H16.0165C15.213 15.457 14.4383 15.2705 13.6923 14.9835C13.1758 14.5244 12.9032 13.8645 12.9176 13.1758C12.9176 12.7741 13.1184 12.3867 13.434 12.1429C13.721 11.8703 14.0796 11.6838 14.467 11.6264C14.9978 11.6838 15.4713 11.9563 15.7582 12.4011C16.2747 12.6593 16.5329 12.9176 16.7912 12.9176C17.1499 12.9606 17.5229 12.8602 17.8242 12.6593C18.025 12.3581 18.1254 11.985 18.0824 11.6264C17.982 10.6364 17.5229 9.71825 16.7912 9.04395C17.609 7.53754 18.0537 5.85897 18.0824 4.13735C18.0681 3.86476 17.8385 3.63521 17.5659 3.62087C16.906 3.36263 16.203 3.19046 15.5 3.10438C13.1184 3.16177 10.7942 3.87911 8.78568 5.17032C7.26492 6.44718 6.40411 8.3553 6.4615 10.3352C6.4328 12.1859 7.17884 13.9649 8.52744 15.2418C9.83299 16.5473 11.5833 17.279 13.434 17.3077V18.3407C13.3767 19.3162 13.764 20.2631 14.467 20.9231C15.0122 21.7122 15.8443 22.2717 16.7912 22.4725V27.1209C16.7912 27.2931 16.8773 27.4652 17.0494 27.6374C17.3077 27.8956 17.3077 27.8956 17.5659 27.8956Z" fill="#2699FB"/>
</svg>
