<svg width="670" height="69" viewBox="0 0 670 69" fill="none" xmlns="http://www.w3.org/2000/svg">
<path d="M0 12.2147L20.5161 2H479.272L483.982 4.34511H666V48.0575L647.469 57.2851H489.707L482.792 53.8443H228.708L214.338 61H0V12.2147Z" fill="url(#paint0_linear_0_1)"/>
<path d="M664.965 12L665.487 67.2103H45.5966L43.1806 63.7255H18.1868L16.4409 61.2074H0V69H666L665.842 13.265L664.965 12Z" fill="#121E26"/>
<path d="M666.193 32.9551V16.2533L666.417 16.146V5.92407L667.324 5.49469V2.52361H642.315L640.709 3.29432H561.093L559.042 2.31003H521.073L518.604 1.1292H492.81L490.342 2.31003H481.861L479.274 1.06919H143.74L142.275 0.366094H122.328L121.564 0H41.393L39.1647 1.07339H23.2391L0 12.2184V62H216.402L222.231 59.2027H258.334L262.699 57.1107H324.139L326.431 56.0115H228.883L230.55 55.2118H482.423L489.225 58.476H644.904L655.519 53.385H658.284L668.83 48.3272V41.6206L670 41.0593V34.7918L666.193 32.9551ZM644.052 57.4735H490.09L483.288 54.2093H229.694L225.955 56.0019L215.544 60.9963H2.071V12.6199L24.101 2.0578H193.724L194.53 2.44421H253.752L254.558 2.0578H478.418L483.058 4.28293H664.121V47.8494L644.052 57.4735Z" fill="#121E26"/>
<defs>
<linearGradient id="paint0_linear_0_1" x1="0" y1="31.5" x2="666" y2="31.5" gradientUnits="userSpaceOnUse">
<stop stop-color="#262261"/>
<stop offset="0.139" stop-color="#293181"/>
<stop offset="0.218" stop-color="#2B388F"/>
<stop offset="0.5" stop-color="#00ADEE"/>
<stop offset="0.833" stop-color="#2B388F"/>
<stop offset="0.879" stop-color="#2A3487"/>
<stop offset="0.945" stop-color="#282B74"/>
<stop offset="0.995" stop-color="#262261"/>
</linearGradient>
</defs>
</svg>
