<svg width="183" height="125" viewBox="0 0 183 125" fill="none" xmlns="http://www.w3.org/2000/svg">
<g filter="url(#filter0_dii_257_362)">
<path d="M21.738 4L33.271 4C40.714 4 45.503 8.26393 45.503 17.2999L45.503 72.7269C45.5528 73.0423 45.4756 73.3647 45.2881 73.6232C45.1006 73.8817 44.8183 74.0553 44.503 74.106L44.493 74.106C44.372 74.1318 44.247 74.1318 44.126 74.106L35.86 74.106C35.5381 74.1518 35.2111 74.0694 34.9493 73.8766C34.6875 73.6838 34.5118 73.3959 34.46 73.075C34.4433 72.9532 34.4433 72.8297 34.46 72.7079L34.46 56.0189L20.165 56.0189L20.165 72.7069C20.2108 73.0288 20.1284 73.3559 19.9356 73.6177C19.7428 73.8795 19.455 74.0552 19.134 74.1069C19.0123 74.1245 18.8887 74.1245 18.767 74.1069L10.886 74.1069C10.5641 74.1527 10.2371 74.0704 9.97527 73.8776C9.71346 73.6848 9.53777 73.3969 9.486 73.0759C9.46849 72.9542 9.46849 72.8307 9.486 72.709L9.486 17.299C9.418 8.26395 14.381 4 21.738 4ZM20.166 17.2999L20.166 46.516L34.458 46.516L34.458 17.2999C34.458 14.7129 33.27 13.526 30.58 13.526L23.922 13.526C21.336 13.519 20.165 14.711 20.165 17.298L20.166 17.2999Z" fill="#0D3864"/>
</g>
<g filter="url(#filter1_dii_257_362)">
<path d="M86.304 64.5819C86.5988 64.5526 86.8933 64.6414 87.1228 64.8289C87.3522 65.0163 87.4979 65.2871 87.528 65.5819C87.5539 65.7089 87.5539 65.8399 87.528 65.9669L86.636 72.8339C86.5965 73.2128 86.4095 73.5611 86.1153 73.8032C85.8211 74.0454 85.4435 74.162 85.064 74.1279L57.507 74.1279C57.1851 74.1737 56.8581 74.0914 56.5963 73.8986C56.3345 73.7058 56.1588 73.4179 56.107 73.0969C56.0895 72.9752 56.0895 72.8516 56.107 72.7299L56.107 5.97986C56.107 4.97986 56.597 4.59986 57.507 4.59986L65.842 4.59986C66.734 4.59986 67.242 4.98386 67.242 5.97986L67.242 64.5869L86.304 64.5819Z" fill="#0D3864"/>
</g>
<g filter="url(#filter2_dii_257_362)">
<path d="M127.717 24.252C127.724 24.44 127.694 24.6276 127.629 24.804C127.563 24.9804 127.464 25.1421 127.336 25.28C127.208 25.4179 127.054 25.5293 126.883 25.6077C126.712 25.6861 126.527 25.73 126.339 25.7369L118.371 26.537C118.223 26.5706 118.07 26.5746 117.921 26.5491C117.772 26.5235 117.629 26.4687 117.501 26.3879C117.373 26.3071 117.262 26.2018 117.174 26.0781C117.087 25.9544 117.024 25.8148 116.991 25.667C116.965 25.5285 116.965 25.3864 116.991 25.2479L116.991 17.298C117.076 16.7833 117.036 16.2558 116.877 15.7593C116.717 15.2628 116.441 14.8114 116.072 14.4426C115.703 14.0738 115.252 13.7982 114.756 13.6384C114.259 13.4787 113.732 13.4394 113.217 13.5239L106.996 13.5239C106.483 13.4424 105.957 13.484 105.463 13.6451C104.969 13.8063 104.52 14.0823 104.153 14.4507C103.786 14.8191 103.512 15.2693 103.353 15.7643C103.194 16.2593 103.155 16.7849 103.239 17.298L103.239 61.398C103.155 61.911 103.194 62.4366 103.353 62.9315C103.512 63.4265 103.786 63.8767 104.153 64.2451C104.52 64.6135 104.969 64.8897 105.463 65.0508C105.957 65.2119 106.483 65.2535 106.996 65.172L113.269 65.172C113.784 65.2565 114.311 65.2173 114.808 65.0575C115.304 64.8977 115.755 64.622 116.124 64.2532C116.493 63.8844 116.769 63.433 116.929 62.9365C117.088 62.44 117.128 61.9126 117.043 61.398L117.043 48.0979L111.678 48.0979C110.77 48.0979 110.178 47.592 110.278 46.698L110.873 40.3729C110.908 40.0081 111.082 39.6707 111.358 39.4301C111.635 39.1894 111.993 39.0637 112.359 39.079L126.337 39.079C126.527 39.0483 126.721 39.0635 126.904 39.1233C127.087 39.1831 127.253 39.2858 127.388 39.4229C127.523 39.5599 127.624 39.7273 127.681 39.911C127.738 40.0947 127.75 40.2895 127.717 40.479L127.717 61.448C127.717 70.482 122.859 74.7629 115.486 74.7629L104.481 74.7629C97.02 74.7629 92.162 70.482 92.162 61.448L92.162 17.292C92.162 8.258 97.02 3.99195 104.481 3.99195L115.481 3.99195C122.942 3.99195 127.712 8.256 127.712 17.292L127.717 24.252Z" fill="#0D3864"/>
</g>
<g filter="url(#filter3_dii_257_362)">
<path d="M136.855 61.401L136.855 17.3009C136.855 8.26691 141.73 4.00098 149.087 4.00098L161.511 4.00098C168.973 4.00098 173.83 8.26491 173.83 17.3009L173.83 61.401C173.83 70.435 168.972 74.7159 161.511 74.7159L149.089 74.7159C141.73 74.7189 136.855 70.435 136.855 61.401ZM147.986 17.3009L147.986 61.401C147.901 61.9157 147.941 62.4431 148.1 62.9396C148.26 63.4361 148.536 63.8874 148.905 64.2562C149.274 64.625 149.725 64.9008 150.221 65.0606C150.718 65.2203 151.245 65.2595 151.76 65.1749L159.011 65.1749C159.526 65.2596 160.053 65.2206 160.55 65.0609C161.047 64.9012 161.498 64.6256 161.867 64.2567C162.236 63.8879 162.512 63.4364 162.672 62.9398C162.831 62.4432 162.871 61.9158 162.786 61.401L162.786 17.3009C162.871 16.7861 162.831 16.2587 162.672 15.7621C162.512 15.2655 162.236 14.814 161.867 14.4452C161.498 14.0764 161.047 13.8007 160.55 13.641C160.053 13.4813 159.526 13.4423 159.011 13.527L151.76 13.527C151.245 13.4424 150.718 13.4816 150.221 13.6414C149.725 13.8011 149.274 14.0769 148.905 14.4457C148.536 14.8145 148.26 15.2658 148.1 15.7623C147.941 16.2588 147.901 16.7862 147.986 17.3009Z" fill="#0D3864"/>
</g>
<g filter="url(#filter4_dii_257_362)">
<path d="M9 82.158L15.534 82.158L15.534 103.248L27.158 103.248L27.158 108.866L9 108.866L9 82.158Z" fill="#0D3864"/>
</g>
<g filter="url(#filter5_dii_257_362)">
<path d="M30.313 82.158L47.983 82.158L47.983 87.958L36.848 87.958L36.848 92.7579L47.026 92.7579L47.026 98.438L36.848 98.438L36.848 103.238L48.492 103.238L48.492 108.856L30.313 108.856L30.313 82.158Z" fill="#0D3864"/>
</g>
<g filter="url(#filter6_dii_257_362)">
<path d="M63.19 81.283L64.35 81.283L77.419 108.867L70.397 108.867L69.053 106.099L58.508 106.099L57.226 108.867L50.202 108.867L63.19 81.283ZM66.833 101.437L63.759 94.6779L60.645 101.437L66.833 101.437Z" fill="#0D3864"/>
</g>
<g filter="url(#filter7_dii_257_362)">
<path d="M90.591 81.283C92.6774 81.2269 94.7521 81.6135 96.6783 82.417C98.6046 83.2205 100.339 84.4229 101.767 85.9449L97.227 90.017C95.4217 88.3367 93.057 87.3864 90.591 87.35C88.6687 87.6623 86.9221 88.6532 85.6678 90.1429C84.4135 91.6327 83.7346 93.5226 83.7543 95.47C83.774 97.4173 84.491 99.2931 85.7752 100.757C87.0594 102.221 88.8258 103.177 90.754 103.45C95.416 103.45 97.696 100.885 97.879 98.2999L90.245 98.2999L90.245 92.762L104.945 92.762L104.945 95.287C104.945 103.165 100.304 109.74 90.696 109.74C86.9167 109.74 83.2921 108.239 80.6197 105.566C77.9474 102.894 76.446 99.2693 76.446 95.49C76.446 91.7107 77.9474 88.0861 80.6197 85.4137C83.2921 82.7413 86.9167 81.24 90.696 81.24L90.591 81.283Z" fill="#0D3864"/>
</g>
<g filter="url(#filter8_dii_257_362)">
<path d="M109.176 82.158L115.669 82.158L115.669 98.891C115.669 102.453 117.359 103.691 119.618 103.691C121.877 103.691 123.69 102.469 123.69 98.891L123.69 82.158L130.224 82.158L130.224 99.8679C130.224 106.179 125.524 109.741 119.639 109.741C113.754 109.741 109.195 106.016 109.195 99.8679L109.176 82.158Z" fill="#0D3864"/>
</g>
<g filter="url(#filter9_dii_257_362)">
<path d="M134.48 82.158L152.15 82.158L152.15 87.958L141.035 87.958L141.035 92.7579L151.213 92.7579L151.213 98.438L141.035 98.438L141.035 103.238L152.635 103.238L152.635 108.856L134.48 108.856L134.48 82.158Z" fill="#0D3864"/>
</g>
<g filter="url(#filter10_dii_257_362)">
<path d="M162.046 101.111C162.041 101.847 162.327 102.555 162.842 103.081C163.356 103.607 164.058 103.909 164.794 103.92C165.098 103.963 165.408 103.945 165.706 103.868C166.004 103.791 166.283 103.656 166.529 103.471C166.774 103.286 166.981 103.054 167.137 102.789C167.293 102.524 167.395 102.231 167.438 101.927C167.454 101.818 167.461 101.709 167.461 101.599C167.461 99.5629 164.834 99.0129 162.661 98.2599C158.161 96.6719 155.678 94.5759 155.678 89.9949C155.742 87.6479 156.733 85.4219 158.435 83.8042C160.136 82.1865 162.41 81.309 164.757 81.3639C170.681 81.3639 173.47 85.1299 173.837 90.0769L167.73 90.0769C167.78 89.3984 167.558 88.7279 167.114 88.2128C166.669 87.6976 166.038 87.3801 165.36 87.3299L165.328 87.3299L164.962 87.3299C164.284 87.2706 163.611 87.4828 163.09 87.9199C162.569 88.357 162.242 88.9833 162.183 89.6609C162.175 89.7389 162.173 89.8169 162.173 89.8949C162.173 91.9309 164.636 92.2558 166.873 92.9278C171.636 94.3528 173.835 96.9989 173.835 101.172C173.809 102.329 173.555 103.47 173.087 104.529C172.62 105.588 171.949 106.545 171.112 107.344C170.275 108.144 169.288 108.771 168.209 109.189C167.13 109.608 165.978 109.81 164.821 109.783C162.576 109.951 160.356 109.221 158.65 107.753C156.943 106.285 155.89 104.199 155.721 101.954C155.699 101.654 155.692 101.354 155.702 101.054L162.046 101.111Z" fill="#0D3864"/>
</g>
<g filter="url(#filter11_dii_257_362)">
<path d="M9 82.158L15.534 82.158L15.534 103.248L27.158 103.248L27.158 108.866L9 108.866L9 82.158Z" fill="#0D3864"/>
</g>
<g filter="url(#filter12_dii_257_362)">
<path d="M30.313 82.158L47.983 82.158L47.983 87.958L36.848 87.958L36.848 92.7579L47.026 92.7579L47.026 98.438L36.848 98.438L36.848 103.238L48.492 103.238L48.492 108.856L30.313 108.856L30.313 82.158Z" fill="#0D3864"/>
</g>
<g filter="url(#filter13_dii_257_362)">
<path d="M63.19 81.283L64.35 81.283L77.419 108.867L70.397 108.867L69.053 106.099L58.508 106.099L57.226 108.867L50.202 108.867L63.19 81.283ZM66.833 101.437L63.759 94.6779L60.645 101.437L66.833 101.437Z" fill="#0D3864"/>
</g>
<g filter="url(#filter14_dii_257_362)">
<path d="M90.591 81.283C92.6774 81.2269 94.7521 81.6135 96.6783 82.417C98.6046 83.2205 100.339 84.4229 101.767 85.9449L97.227 90.017C95.4217 88.3367 93.057 87.3864 90.591 87.35C88.6687 87.6623 86.9221 88.6532 85.6678 90.1429C84.4135 91.6327 83.7346 93.5226 83.7543 95.47C83.774 97.4173 84.491 99.2931 85.7752 100.757C87.0594 102.221 88.8258 103.177 90.754 103.45C95.416 103.45 97.696 100.885 97.879 98.2999L90.245 98.2999L90.245 92.762L104.945 92.762L104.945 95.287C104.945 103.165 100.304 109.74 90.696 109.74C86.9167 109.74 83.2921 108.239 80.6197 105.566C77.9474 102.894 76.446 99.2693 76.446 95.49C76.446 91.7107 77.9474 88.0861 80.6197 85.4137C83.2921 82.7413 86.9167 81.24 90.696 81.24L90.591 81.283Z" fill="#0D3864"/>
</g>
<g filter="url(#filter15_dii_257_362)">
<path d="M109.176 82.158L115.669 82.158L115.669 98.891C115.669 102.453 117.359 103.691 119.618 103.691C121.877 103.691 123.69 102.469 123.69 98.891L123.69 82.158L130.224 82.158L130.224 99.8679C130.224 106.179 125.524 109.741 119.639 109.741C113.754 109.741 109.195 106.016 109.195 99.8679L109.176 82.158Z" fill="#0D3864"/>
</g>
<g filter="url(#filter16_dii_257_362)">
<path d="M134.48 82.158L152.15 82.158L152.15 87.958L141.035 87.958L141.035 92.7579L151.213 92.7579L151.213 98.438L141.035 98.438L141.035 103.238L152.635 103.238L152.635 108.856L134.48 108.856L134.48 82.158Z" fill="#0D3864"/>
</g>
<g filter="url(#filter17_dii_257_362)">
<path d="M162.046 101.111C162.041 101.847 162.327 102.555 162.842 103.081C163.356 103.607 164.058 103.909 164.794 103.92C165.098 103.963 165.408 103.945 165.706 103.868C166.004 103.791 166.283 103.656 166.529 103.471C166.774 103.286 166.981 103.054 167.137 102.789C167.293 102.524 167.395 102.231 167.438 101.927C167.454 101.818 167.461 101.709 167.461 101.599C167.461 99.5629 164.834 99.0129 162.661 98.2599C158.161 96.6719 155.678 94.5759 155.678 89.9949C155.742 87.6479 156.733 85.4219 158.435 83.8042C160.136 82.1865 162.41 81.309 164.757 81.3639C170.681 81.3639 173.47 85.1299 173.837 90.0769L167.73 90.0769C167.78 89.3984 167.558 88.7279 167.114 88.2128C166.669 87.6976 166.038 87.3801 165.36 87.3299L165.328 87.3299L164.962 87.3299C164.284 87.2706 163.611 87.4828 163.09 87.9199C162.569 88.357 162.242 88.9833 162.183 89.6609C162.175 89.7389 162.173 89.8169 162.173 89.8949C162.173 91.9309 164.636 92.2558 166.873 92.9278C171.636 94.3528 173.835 96.9989 173.835 101.172C173.809 102.329 173.555 103.47 173.087 104.529C172.62 105.588 171.949 106.545 171.112 107.344C170.275 108.144 169.288 108.771 168.209 109.189C167.13 109.608 165.978 109.81 164.821 109.783C162.576 109.951 160.356 109.221 158.65 107.753C156.943 106.285 155.89 104.199 155.721 101.954C155.699 101.654 155.692 101.354 155.702 101.054L162.046 101.111Z" fill="#0D3864"/>
</g>
<defs>
<filter id="filter0_dii_257_362" x="0.47287" y="1" width="54.0449" height="88.1254" filterUnits="userSpaceOnUse" color-interpolation-filters="sRGB">
<feFlood flood-opacity="0" result="BackgroundImageFix"/>
<feColorMatrix in="SourceAlpha" type="matrix" values="0 0 0 0 0 0 0 0 0 0 0 0 0 0 0 0 0 0 127 0" result="hardAlpha"/>
<feOffset dy="6"/>
<feGaussianBlur stdDeviation="4.5"/>
<feComposite in2="hardAlpha" operator="out"/>
<feColorMatrix type="matrix" values="0 0 0 0 0 0 0 0 0 0 0 0 0 0 0 0 0 0 0.4 0"/>
<feBlend mode="normal" in2="BackgroundImageFix" result="effect1_dropShadow_257_362"/>
<feBlend mode="normal" in="SourceGraphic" in2="effect1_dropShadow_257_362" result="shape"/>
<feColorMatrix in="SourceAlpha" type="matrix" values="0 0 0 0 0 0 0 0 0 0 0 0 0 0 0 0 0 0 127 0" result="hardAlpha"/>
<feOffset dy="-3"/>
<feComposite in2="hardAlpha" operator="arithmetic" k2="-1" k3="1"/>
<feColorMatrix type="matrix" values="0 0 0 0 0 0 0 0 0 0 0 0 0 0 0 0 0 0 0.83 0"/>
<feBlend mode="normal" in2="shape" result="effect2_innerShadow_257_362"/>
<feColorMatrix in="SourceAlpha" type="matrix" values="0 0 0 0 0 0 0 0 0 0 0 0 0 0 0 0 0 0 127 0" result="hardAlpha"/>
<feOffset dx="-2"/>
<feGaussianBlur stdDeviation="1"/>
<feComposite in2="hardAlpha" operator="arithmetic" k2="-1" k3="1"/>
<feColorMatrix type="matrix" values="0 0 0 0 0.7375 0 0 0 0 0.7375 0 0 0 0 0.7375 0 0 0 0.9 0"/>
<feBlend mode="normal" in2="effect2_innerShadow_257_362" result="effect3_innerShadow_257_362"/>
</filter>
<filter id="filter1_dii_257_362" x="47.0939" y="1.59986" width="49.4536" height="87.5405" filterUnits="userSpaceOnUse" color-interpolation-filters="sRGB">
<feFlood flood-opacity="0" result="BackgroundImageFix"/>
<feColorMatrix in="SourceAlpha" type="matrix" values="0 0 0 0 0 0 0 0 0 0 0 0 0 0 0 0 0 0 127 0" result="hardAlpha"/>
<feOffset dy="6"/>
<feGaussianBlur stdDeviation="4.5"/>
<feComposite in2="hardAlpha" operator="out"/>
<feColorMatrix type="matrix" values="0 0 0 0 0 0 0 0 0 0 0 0 0 0 0 0 0 0 0.4 0"/>
<feBlend mode="normal" in2="BackgroundImageFix" result="effect1_dropShadow_257_362"/>
<feBlend mode="normal" in="SourceGraphic" in2="effect1_dropShadow_257_362" result="shape"/>
<feColorMatrix in="SourceAlpha" type="matrix" values="0 0 0 0 0 0 0 0 0 0 0 0 0 0 0 0 0 0 127 0" result="hardAlpha"/>
<feOffset dy="-3"/>
<feComposite in2="hardAlpha" operator="arithmetic" k2="-1" k3="1"/>
<feColorMatrix type="matrix" values="0 0 0 0 0 0 0 0 0 0 0 0 0 0 0 0 0 0 0.83 0"/>
<feBlend mode="normal" in2="shape" result="effect2_innerShadow_257_362"/>
<feColorMatrix in="SourceAlpha" type="matrix" values="0 0 0 0 0 0 0 0 0 0 0 0 0 0 0 0 0 0 127 0" result="hardAlpha"/>
<feOffset dx="-2"/>
<feGaussianBlur stdDeviation="1"/>
<feComposite in2="hardAlpha" operator="arithmetic" k2="-1" k3="1"/>
<feColorMatrix type="matrix" values="0 0 0 0 0.7375 0 0 0 0 0.7375 0 0 0 0 0.7375 0 0 0 0.9 0"/>
<feBlend mode="normal" in2="effect2_innerShadow_257_362" result="effect3_innerShadow_257_362"/>
</filter>
<filter id="filter2_dii_257_362" x="83.162" y="0.991947" width="53.5733" height="88.771" filterUnits="userSpaceOnUse" color-interpolation-filters="sRGB">
<feFlood flood-opacity="0" result="BackgroundImageFix"/>
<feColorMatrix in="SourceAlpha" type="matrix" values="0 0 0 0 0 0 0 0 0 0 0 0 0 0 0 0 0 0 127 0" result="hardAlpha"/>
<feOffset dy="6"/>
<feGaussianBlur stdDeviation="4.5"/>
<feComposite in2="hardAlpha" operator="out"/>
<feColorMatrix type="matrix" values="0 0 0 0 0 0 0 0 0 0 0 0 0 0 0 0 0 0 0.4 0"/>
<feBlend mode="normal" in2="BackgroundImageFix" result="effect1_dropShadow_257_362"/>
<feBlend mode="normal" in="SourceGraphic" in2="effect1_dropShadow_257_362" result="shape"/>
<feColorMatrix in="SourceAlpha" type="matrix" values="0 0 0 0 0 0 0 0 0 0 0 0 0 0 0 0 0 0 127 0" result="hardAlpha"/>
<feOffset dy="-3"/>
<feComposite in2="hardAlpha" operator="arithmetic" k2="-1" k3="1"/>
<feColorMatrix type="matrix" values="0 0 0 0 0 0 0 0 0 0 0 0 0 0 0 0 0 0 0.83 0"/>
<feBlend mode="normal" in2="shape" result="effect2_innerShadow_257_362"/>
<feColorMatrix in="SourceAlpha" type="matrix" values="0 0 0 0 0 0 0 0 0 0 0 0 0 0 0 0 0 0 127 0" result="hardAlpha"/>
<feOffset dx="-2"/>
<feGaussianBlur stdDeviation="1"/>
<feComposite in2="hardAlpha" operator="arithmetic" k2="-1" k3="1"/>
<feColorMatrix type="matrix" values="0 0 0 0 0.7375 0 0 0 0 0.7375 0 0 0 0 0.7375 0 0 0 0.9 0"/>
<feBlend mode="normal" in2="effect2_innerShadow_257_362" result="effect3_innerShadow_257_362"/>
</filter>
<filter id="filter3_dii_257_362" x="127.855" y="1.00098" width="54.975" height="88.715" filterUnits="userSpaceOnUse" color-interpolation-filters="sRGB">
<feFlood flood-opacity="0" result="BackgroundImageFix"/>
<feColorMatrix in="SourceAlpha" type="matrix" values="0 0 0 0 0 0 0 0 0 0 0 0 0 0 0 0 0 0 127 0" result="hardAlpha"/>
<feOffset dy="6"/>
<feGaussianBlur stdDeviation="4.5"/>
<feComposite in2="hardAlpha" operator="out"/>
<feColorMatrix type="matrix" values="0 0 0 0 0 0 0 0 0 0 0 0 0 0 0 0 0 0 0.4 0"/>
<feBlend mode="normal" in2="BackgroundImageFix" result="effect1_dropShadow_257_362"/>
<feBlend mode="normal" in="SourceGraphic" in2="effect1_dropShadow_257_362" result="shape"/>
<feColorMatrix in="SourceAlpha" type="matrix" values="0 0 0 0 0 0 0 0 0 0 0 0 0 0 0 0 0 0 127 0" result="hardAlpha"/>
<feOffset dy="-3"/>
<feComposite in2="hardAlpha" operator="arithmetic" k2="-1" k3="1"/>
<feColorMatrix type="matrix" values="0 0 0 0 0 0 0 0 0 0 0 0 0 0 0 0 0 0 0.83 0"/>
<feBlend mode="normal" in2="shape" result="effect2_innerShadow_257_362"/>
<feColorMatrix in="SourceAlpha" type="matrix" values="0 0 0 0 0 0 0 0 0 0 0 0 0 0 0 0 0 0 127 0" result="hardAlpha"/>
<feOffset dx="-2"/>
<feGaussianBlur stdDeviation="1"/>
<feComposite in2="hardAlpha" operator="arithmetic" k2="-1" k3="1"/>
<feColorMatrix type="matrix" values="0 0 0 0 0.7375 0 0 0 0 0.7375 0 0 0 0 0.7375 0 0 0 0.9 0"/>
<feBlend mode="normal" in2="effect2_innerShadow_257_362" result="effect3_innerShadow_257_362"/>
</filter>
<filter id="filter4_dii_257_362" x="0" y="79.158" width="36.158" height="44.708" filterUnits="userSpaceOnUse" color-interpolation-filters="sRGB">
<feFlood flood-opacity="0" result="BackgroundImageFix"/>
<feColorMatrix in="SourceAlpha" type="matrix" values="0 0 0 0 0 0 0 0 0 0 0 0 0 0 0 0 0 0 127 0" result="hardAlpha"/>
<feOffset dy="6"/>
<feGaussianBlur stdDeviation="4.5"/>
<feComposite in2="hardAlpha" operator="out"/>
<feColorMatrix type="matrix" values="0 0 0 0 0 0 0 0 0 0 0 0 0 0 0 0 0 0 0.4 0"/>
<feBlend mode="normal" in2="BackgroundImageFix" result="effect1_dropShadow_257_362"/>
<feBlend mode="normal" in="SourceGraphic" in2="effect1_dropShadow_257_362" result="shape"/>
<feColorMatrix in="SourceAlpha" type="matrix" values="0 0 0 0 0 0 0 0 0 0 0 0 0 0 0 0 0 0 127 0" result="hardAlpha"/>
<feOffset dy="-3"/>
<feComposite in2="hardAlpha" operator="arithmetic" k2="-1" k3="1"/>
<feColorMatrix type="matrix" values="0 0 0 0 0 0 0 0 0 0 0 0 0 0 0 0 0 0 0.83 0"/>
<feBlend mode="normal" in2="shape" result="effect2_innerShadow_257_362"/>
<feColorMatrix in="SourceAlpha" type="matrix" values="0 0 0 0 0 0 0 0 0 0 0 0 0 0 0 0 0 0 127 0" result="hardAlpha"/>
<feOffset dx="-2"/>
<feGaussianBlur stdDeviation="1"/>
<feComposite in2="hardAlpha" operator="arithmetic" k2="-1" k3="1"/>
<feColorMatrix type="matrix" values="0 0 0 0 0.7375 0 0 0 0 0.7375 0 0 0 0 0.7375 0 0 0 0.9 0"/>
<feBlend mode="normal" in2="effect2_innerShadow_257_362" result="effect3_innerShadow_257_362"/>
</filter>
<filter id="filter5_dii_257_362" x="21.313" y="79.158" width="36.179" height="44.698" filterUnits="userSpaceOnUse" color-interpolation-filters="sRGB">
<feFlood flood-opacity="0" result="BackgroundImageFix"/>
<feColorMatrix in="SourceAlpha" type="matrix" values="0 0 0 0 0 0 0 0 0 0 0 0 0 0 0 0 0 0 127 0" result="hardAlpha"/>
<feOffset dy="6"/>
<feGaussianBlur stdDeviation="4.5"/>
<feComposite in2="hardAlpha" operator="out"/>
<feColorMatrix type="matrix" values="0 0 0 0 0 0 0 0 0 0 0 0 0 0 0 0 0 0 0.4 0"/>
<feBlend mode="normal" in2="BackgroundImageFix" result="effect1_dropShadow_257_362"/>
<feBlend mode="normal" in="SourceGraphic" in2="effect1_dropShadow_257_362" result="shape"/>
<feColorMatrix in="SourceAlpha" type="matrix" values="0 0 0 0 0 0 0 0 0 0 0 0 0 0 0 0 0 0 127 0" result="hardAlpha"/>
<feOffset dy="-3"/>
<feComposite in2="hardAlpha" operator="arithmetic" k2="-1" k3="1"/>
<feColorMatrix type="matrix" values="0 0 0 0 0 0 0 0 0 0 0 0 0 0 0 0 0 0 0.83 0"/>
<feBlend mode="normal" in2="shape" result="effect2_innerShadow_257_362"/>
<feColorMatrix in="SourceAlpha" type="matrix" values="0 0 0 0 0 0 0 0 0 0 0 0 0 0 0 0 0 0 127 0" result="hardAlpha"/>
<feOffset dx="-2"/>
<feGaussianBlur stdDeviation="1"/>
<feComposite in2="hardAlpha" operator="arithmetic" k2="-1" k3="1"/>
<feColorMatrix type="matrix" values="0 0 0 0 0.7375 0 0 0 0 0.7375 0 0 0 0 0.7375 0 0 0 0.9 0"/>
<feBlend mode="normal" in2="effect2_innerShadow_257_362" result="effect3_innerShadow_257_362"/>
</filter>
<filter id="filter6_dii_257_362" x="41.202" y="78.283" width="45.217" height="45.584" filterUnits="userSpaceOnUse" color-interpolation-filters="sRGB">
<feFlood flood-opacity="0" result="BackgroundImageFix"/>
<feColorMatrix in="SourceAlpha" type="matrix" values="0 0 0 0 0 0 0 0 0 0 0 0 0 0 0 0 0 0 127 0" result="hardAlpha"/>
<feOffset dy="6"/>
<feGaussianBlur stdDeviation="4.5"/>
<feComposite in2="hardAlpha" operator="out"/>
<feColorMatrix type="matrix" values="0 0 0 0 0 0 0 0 0 0 0 0 0 0 0 0 0 0 0.4 0"/>
<feBlend mode="normal" in2="BackgroundImageFix" result="effect1_dropShadow_257_362"/>
<feBlend mode="normal" in="SourceGraphic" in2="effect1_dropShadow_257_362" result="shape"/>
<feColorMatrix in="SourceAlpha" type="matrix" values="0 0 0 0 0 0 0 0 0 0 0 0 0 0 0 0 0 0 127 0" result="hardAlpha"/>
<feOffset dy="-3"/>
<feComposite in2="hardAlpha" operator="arithmetic" k2="-1" k3="1"/>
<feColorMatrix type="matrix" values="0 0 0 0 0 0 0 0 0 0 0 0 0 0 0 0 0 0 0.83 0"/>
<feBlend mode="normal" in2="shape" result="effect2_innerShadow_257_362"/>
<feColorMatrix in="SourceAlpha" type="matrix" values="0 0 0 0 0 0 0 0 0 0 0 0 0 0 0 0 0 0 127 0" result="hardAlpha"/>
<feOffset dx="-2"/>
<feGaussianBlur stdDeviation="1"/>
<feComposite in2="hardAlpha" operator="arithmetic" k2="-1" k3="1"/>
<feColorMatrix type="matrix" values="0 0 0 0 0.7375 0 0 0 0 0.7375 0 0 0 0 0.7375 0 0 0 0.9 0"/>
<feBlend mode="normal" in2="effect2_innerShadow_257_362" result="effect3_innerShadow_257_362"/>
</filter>
<filter id="filter7_dii_257_362" x="67.446" y="78.24" width="46.499" height="46.5" filterUnits="userSpaceOnUse" color-interpolation-filters="sRGB">
<feFlood flood-opacity="0" result="BackgroundImageFix"/>
<feColorMatrix in="SourceAlpha" type="matrix" values="0 0 0 0 0 0 0 0 0 0 0 0 0 0 0 0 0 0 127 0" result="hardAlpha"/>
<feOffset dy="6"/>
<feGaussianBlur stdDeviation="4.5"/>
<feComposite in2="hardAlpha" operator="out"/>
<feColorMatrix type="matrix" values="0 0 0 0 0 0 0 0 0 0 0 0 0 0 0 0 0 0 0.4 0"/>
<feBlend mode="normal" in2="BackgroundImageFix" result="effect1_dropShadow_257_362"/>
<feBlend mode="normal" in="SourceGraphic" in2="effect1_dropShadow_257_362" result="shape"/>
<feColorMatrix in="SourceAlpha" type="matrix" values="0 0 0 0 0 0 0 0 0 0 0 0 0 0 0 0 0 0 127 0" result="hardAlpha"/>
<feOffset dy="-3"/>
<feComposite in2="hardAlpha" operator="arithmetic" k2="-1" k3="1"/>
<feColorMatrix type="matrix" values="0 0 0 0 0 0 0 0 0 0 0 0 0 0 0 0 0 0 0.83 0"/>
<feBlend mode="normal" in2="shape" result="effect2_innerShadow_257_362"/>
<feColorMatrix in="SourceAlpha" type="matrix" values="0 0 0 0 0 0 0 0 0 0 0 0 0 0 0 0 0 0 127 0" result="hardAlpha"/>
<feOffset dx="-2"/>
<feGaussianBlur stdDeviation="1"/>
<feComposite in2="hardAlpha" operator="arithmetic" k2="-1" k3="1"/>
<feColorMatrix type="matrix" values="0 0 0 0 0.7375 0 0 0 0 0.7375 0 0 0 0 0.7375 0 0 0 0.9 0"/>
<feBlend mode="normal" in2="effect2_innerShadow_257_362" result="effect3_innerShadow_257_362"/>
</filter>
<filter id="filter8_dii_257_362" x="100.176" y="79.158" width="39.048" height="45.583" filterUnits="userSpaceOnUse" color-interpolation-filters="sRGB">
<feFlood flood-opacity="0" result="BackgroundImageFix"/>
<feColorMatrix in="SourceAlpha" type="matrix" values="0 0 0 0 0 0 0 0 0 0 0 0 0 0 0 0 0 0 127 0" result="hardAlpha"/>
<feOffset dy="6"/>
<feGaussianBlur stdDeviation="4.5"/>
<feComposite in2="hardAlpha" operator="out"/>
<feColorMatrix type="matrix" values="0 0 0 0 0 0 0 0 0 0 0 0 0 0 0 0 0 0 0.4 0"/>
<feBlend mode="normal" in2="BackgroundImageFix" result="effect1_dropShadow_257_362"/>
<feBlend mode="normal" in="SourceGraphic" in2="effect1_dropShadow_257_362" result="shape"/>
<feColorMatrix in="SourceAlpha" type="matrix" values="0 0 0 0 0 0 0 0 0 0 0 0 0 0 0 0 0 0 127 0" result="hardAlpha"/>
<feOffset dy="-3"/>
<feComposite in2="hardAlpha" operator="arithmetic" k2="-1" k3="1"/>
<feColorMatrix type="matrix" values="0 0 0 0 0 0 0 0 0 0 0 0 0 0 0 0 0 0 0.83 0"/>
<feBlend mode="normal" in2="shape" result="effect2_innerShadow_257_362"/>
<feColorMatrix in="SourceAlpha" type="matrix" values="0 0 0 0 0 0 0 0 0 0 0 0 0 0 0 0 0 0 127 0" result="hardAlpha"/>
<feOffset dx="-2"/>
<feGaussianBlur stdDeviation="1"/>
<feComposite in2="hardAlpha" operator="arithmetic" k2="-1" k3="1"/>
<feColorMatrix type="matrix" values="0 0 0 0 0.7375 0 0 0 0 0.7375 0 0 0 0 0.7375 0 0 0 0.9 0"/>
<feBlend mode="normal" in2="effect2_innerShadow_257_362" result="effect3_innerShadow_257_362"/>
</filter>
<filter id="filter9_dii_257_362" x="125.48" y="79.158" width="36.155" height="44.698" filterUnits="userSpaceOnUse" color-interpolation-filters="sRGB">
<feFlood flood-opacity="0" result="BackgroundImageFix"/>
<feColorMatrix in="SourceAlpha" type="matrix" values="0 0 0 0 0 0 0 0 0 0 0 0 0 0 0 0 0 0 127 0" result="hardAlpha"/>
<feOffset dy="6"/>
<feGaussianBlur stdDeviation="4.5"/>
<feComposite in2="hardAlpha" operator="out"/>
<feColorMatrix type="matrix" values="0 0 0 0 0 0 0 0 0 0 0 0 0 0 0 0 0 0 0.4 0"/>
<feBlend mode="normal" in2="BackgroundImageFix" result="effect1_dropShadow_257_362"/>
<feBlend mode="normal" in="SourceGraphic" in2="effect1_dropShadow_257_362" result="shape"/>
<feColorMatrix in="SourceAlpha" type="matrix" values="0 0 0 0 0 0 0 0 0 0 0 0 0 0 0 0 0 0 127 0" result="hardAlpha"/>
<feOffset dy="-3"/>
<feComposite in2="hardAlpha" operator="arithmetic" k2="-1" k3="1"/>
<feColorMatrix type="matrix" values="0 0 0 0 0 0 0 0 0 0 0 0 0 0 0 0 0 0 0.83 0"/>
<feBlend mode="normal" in2="shape" result="effect2_innerShadow_257_362"/>
<feColorMatrix in="SourceAlpha" type="matrix" values="0 0 0 0 0 0 0 0 0 0 0 0 0 0 0 0 0 0 127 0" result="hardAlpha"/>
<feOffset dx="-2"/>
<feGaussianBlur stdDeviation="1"/>
<feComposite in2="hardAlpha" operator="arithmetic" k2="-1" k3="1"/>
<feColorMatrix type="matrix" values="0 0 0 0 0.7375 0 0 0 0 0.7375 0 0 0 0 0.7375 0 0 0 0.9 0"/>
<feBlend mode="normal" in2="effect2_innerShadow_257_362" result="effect3_innerShadow_257_362"/>
</filter>
<filter id="filter10_dii_257_362" x="146.678" y="78.3615" width="36.159" height="46.4453" filterUnits="userSpaceOnUse" color-interpolation-filters="sRGB">
<feFlood flood-opacity="0" result="BackgroundImageFix"/>
<feColorMatrix in="SourceAlpha" type="matrix" values="0 0 0 0 0 0 0 0 0 0 0 0 0 0 0 0 0 0 127 0" result="hardAlpha"/>
<feOffset dy="6"/>
<feGaussianBlur stdDeviation="4.5"/>
<feComposite in2="hardAlpha" operator="out"/>
<feColorMatrix type="matrix" values="0 0 0 0 0 0 0 0 0 0 0 0 0 0 0 0 0 0 0.4 0"/>
<feBlend mode="normal" in2="BackgroundImageFix" result="effect1_dropShadow_257_362"/>
<feBlend mode="normal" in="SourceGraphic" in2="effect1_dropShadow_257_362" result="shape"/>
<feColorMatrix in="SourceAlpha" type="matrix" values="0 0 0 0 0 0 0 0 0 0 0 0 0 0 0 0 0 0 127 0" result="hardAlpha"/>
<feOffset dy="-3"/>
<feComposite in2="hardAlpha" operator="arithmetic" k2="-1" k3="1"/>
<feColorMatrix type="matrix" values="0 0 0 0 0 0 0 0 0 0 0 0 0 0 0 0 0 0 0.83 0"/>
<feBlend mode="normal" in2="shape" result="effect2_innerShadow_257_362"/>
<feColorMatrix in="SourceAlpha" type="matrix" values="0 0 0 0 0 0 0 0 0 0 0 0 0 0 0 0 0 0 127 0" result="hardAlpha"/>
<feOffset dx="-2"/>
<feGaussianBlur stdDeviation="1"/>
<feComposite in2="hardAlpha" operator="arithmetic" k2="-1" k3="1"/>
<feColorMatrix type="matrix" values="0 0 0 0 0.7375 0 0 0 0 0.7375 0 0 0 0 0.7375 0 0 0 0.9 0"/>
<feBlend mode="normal" in2="effect2_innerShadow_257_362" result="effect3_innerShadow_257_362"/>
</filter>
<filter id="filter11_dii_257_362" x="0" y="79.158" width="36.158" height="44.708" filterUnits="userSpaceOnUse" color-interpolation-filters="sRGB">
<feFlood flood-opacity="0" result="BackgroundImageFix"/>
<feColorMatrix in="SourceAlpha" type="matrix" values="0 0 0 0 0 0 0 0 0 0 0 0 0 0 0 0 0 0 127 0" result="hardAlpha"/>
<feOffset dy="6"/>
<feGaussianBlur stdDeviation="4.5"/>
<feComposite in2="hardAlpha" operator="out"/>
<feColorMatrix type="matrix" values="0 0 0 0 0 0 0 0 0 0 0 0 0 0 0 0 0 0 0.4 0"/>
<feBlend mode="normal" in2="BackgroundImageFix" result="effect1_dropShadow_257_362"/>
<feBlend mode="normal" in="SourceGraphic" in2="effect1_dropShadow_257_362" result="shape"/>
<feColorMatrix in="SourceAlpha" type="matrix" values="0 0 0 0 0 0 0 0 0 0 0 0 0 0 0 0 0 0 127 0" result="hardAlpha"/>
<feOffset dy="-3"/>
<feComposite in2="hardAlpha" operator="arithmetic" k2="-1" k3="1"/>
<feColorMatrix type="matrix" values="0 0 0 0 0 0 0 0 0 0 0 0 0 0 0 0 0 0 0.83 0"/>
<feBlend mode="normal" in2="shape" result="effect2_innerShadow_257_362"/>
<feColorMatrix in="SourceAlpha" type="matrix" values="0 0 0 0 0 0 0 0 0 0 0 0 0 0 0 0 0 0 127 0" result="hardAlpha"/>
<feOffset dx="-2"/>
<feGaussianBlur stdDeviation="1"/>
<feComposite in2="hardAlpha" operator="arithmetic" k2="-1" k3="1"/>
<feColorMatrix type="matrix" values="0 0 0 0 0.7375 0 0 0 0 0.7375 0 0 0 0 0.7375 0 0 0 0.9 0"/>
<feBlend mode="normal" in2="effect2_innerShadow_257_362" result="effect3_innerShadow_257_362"/>
</filter>
<filter id="filter12_dii_257_362" x="21.313" y="79.158" width="36.179" height="44.698" filterUnits="userSpaceOnUse" color-interpolation-filters="sRGB">
<feFlood flood-opacity="0" result="BackgroundImageFix"/>
<feColorMatrix in="SourceAlpha" type="matrix" values="0 0 0 0 0 0 0 0 0 0 0 0 0 0 0 0 0 0 127 0" result="hardAlpha"/>
<feOffset dy="6"/>
<feGaussianBlur stdDeviation="4.5"/>
<feComposite in2="hardAlpha" operator="out"/>
<feColorMatrix type="matrix" values="0 0 0 0 0 0 0 0 0 0 0 0 0 0 0 0 0 0 0.4 0"/>
<feBlend mode="normal" in2="BackgroundImageFix" result="effect1_dropShadow_257_362"/>
<feBlend mode="normal" in="SourceGraphic" in2="effect1_dropShadow_257_362" result="shape"/>
<feColorMatrix in="SourceAlpha" type="matrix" values="0 0 0 0 0 0 0 0 0 0 0 0 0 0 0 0 0 0 127 0" result="hardAlpha"/>
<feOffset dy="-3"/>
<feComposite in2="hardAlpha" operator="arithmetic" k2="-1" k3="1"/>
<feColorMatrix type="matrix" values="0 0 0 0 0 0 0 0 0 0 0 0 0 0 0 0 0 0 0.83 0"/>
<feBlend mode="normal" in2="shape" result="effect2_innerShadow_257_362"/>
<feColorMatrix in="SourceAlpha" type="matrix" values="0 0 0 0 0 0 0 0 0 0 0 0 0 0 0 0 0 0 127 0" result="hardAlpha"/>
<feOffset dx="-2"/>
<feGaussianBlur stdDeviation="1"/>
<feComposite in2="hardAlpha" operator="arithmetic" k2="-1" k3="1"/>
<feColorMatrix type="matrix" values="0 0 0 0 0.7375 0 0 0 0 0.7375 0 0 0 0 0.7375 0 0 0 0.9 0"/>
<feBlend mode="normal" in2="effect2_innerShadow_257_362" result="effect3_innerShadow_257_362"/>
</filter>
<filter id="filter13_dii_257_362" x="41.202" y="78.283" width="45.217" height="45.584" filterUnits="userSpaceOnUse" color-interpolation-filters="sRGB">
<feFlood flood-opacity="0" result="BackgroundImageFix"/>
<feColorMatrix in="SourceAlpha" type="matrix" values="0 0 0 0 0 0 0 0 0 0 0 0 0 0 0 0 0 0 127 0" result="hardAlpha"/>
<feOffset dy="6"/>
<feGaussianBlur stdDeviation="4.5"/>
<feComposite in2="hardAlpha" operator="out"/>
<feColorMatrix type="matrix" values="0 0 0 0 0 0 0 0 0 0 0 0 0 0 0 0 0 0 0.4 0"/>
<feBlend mode="normal" in2="BackgroundImageFix" result="effect1_dropShadow_257_362"/>
<feBlend mode="normal" in="SourceGraphic" in2="effect1_dropShadow_257_362" result="shape"/>
<feColorMatrix in="SourceAlpha" type="matrix" values="0 0 0 0 0 0 0 0 0 0 0 0 0 0 0 0 0 0 127 0" result="hardAlpha"/>
<feOffset dy="-3"/>
<feComposite in2="hardAlpha" operator="arithmetic" k2="-1" k3="1"/>
<feColorMatrix type="matrix" values="0 0 0 0 0 0 0 0 0 0 0 0 0 0 0 0 0 0 0.83 0"/>
<feBlend mode="normal" in2="shape" result="effect2_innerShadow_257_362"/>
<feColorMatrix in="SourceAlpha" type="matrix" values="0 0 0 0 0 0 0 0 0 0 0 0 0 0 0 0 0 0 127 0" result="hardAlpha"/>
<feOffset dx="-2"/>
<feGaussianBlur stdDeviation="1"/>
<feComposite in2="hardAlpha" operator="arithmetic" k2="-1" k3="1"/>
<feColorMatrix type="matrix" values="0 0 0 0 0.7375 0 0 0 0 0.7375 0 0 0 0 0.7375 0 0 0 0.9 0"/>
<feBlend mode="normal" in2="effect2_innerShadow_257_362" result="effect3_innerShadow_257_362"/>
</filter>
<filter id="filter14_dii_257_362" x="67.446" y="78.24" width="46.499" height="46.5" filterUnits="userSpaceOnUse" color-interpolation-filters="sRGB">
<feFlood flood-opacity="0" result="BackgroundImageFix"/>
<feColorMatrix in="SourceAlpha" type="matrix" values="0 0 0 0 0 0 0 0 0 0 0 0 0 0 0 0 0 0 127 0" result="hardAlpha"/>
<feOffset dy="6"/>
<feGaussianBlur stdDeviation="4.5"/>
<feComposite in2="hardAlpha" operator="out"/>
<feColorMatrix type="matrix" values="0 0 0 0 0 0 0 0 0 0 0 0 0 0 0 0 0 0 0.4 0"/>
<feBlend mode="normal" in2="BackgroundImageFix" result="effect1_dropShadow_257_362"/>
<feBlend mode="normal" in="SourceGraphic" in2="effect1_dropShadow_257_362" result="shape"/>
<feColorMatrix in="SourceAlpha" type="matrix" values="0 0 0 0 0 0 0 0 0 0 0 0 0 0 0 0 0 0 127 0" result="hardAlpha"/>
<feOffset dy="-3"/>
<feComposite in2="hardAlpha" operator="arithmetic" k2="-1" k3="1"/>
<feColorMatrix type="matrix" values="0 0 0 0 0 0 0 0 0 0 0 0 0 0 0 0 0 0 0.83 0"/>
<feBlend mode="normal" in2="shape" result="effect2_innerShadow_257_362"/>
<feColorMatrix in="SourceAlpha" type="matrix" values="0 0 0 0 0 0 0 0 0 0 0 0 0 0 0 0 0 0 127 0" result="hardAlpha"/>
<feOffset dx="-2"/>
<feGaussianBlur stdDeviation="1"/>
<feComposite in2="hardAlpha" operator="arithmetic" k2="-1" k3="1"/>
<feColorMatrix type="matrix" values="0 0 0 0 0.7375 0 0 0 0 0.7375 0 0 0 0 0.7375 0 0 0 0.9 0"/>
<feBlend mode="normal" in2="effect2_innerShadow_257_362" result="effect3_innerShadow_257_362"/>
</filter>
<filter id="filter15_dii_257_362" x="100.176" y="79.158" width="39.048" height="45.583" filterUnits="userSpaceOnUse" color-interpolation-filters="sRGB">
<feFlood flood-opacity="0" result="BackgroundImageFix"/>
<feColorMatrix in="SourceAlpha" type="matrix" values="0 0 0 0 0 0 0 0 0 0 0 0 0 0 0 0 0 0 127 0" result="hardAlpha"/>
<feOffset dy="6"/>
<feGaussianBlur stdDeviation="4.5"/>
<feComposite in2="hardAlpha" operator="out"/>
<feColorMatrix type="matrix" values="0 0 0 0 0 0 0 0 0 0 0 0 0 0 0 0 0 0 0.4 0"/>
<feBlend mode="normal" in2="BackgroundImageFix" result="effect1_dropShadow_257_362"/>
<feBlend mode="normal" in="SourceGraphic" in2="effect1_dropShadow_257_362" result="shape"/>
<feColorMatrix in="SourceAlpha" type="matrix" values="0 0 0 0 0 0 0 0 0 0 0 0 0 0 0 0 0 0 127 0" result="hardAlpha"/>
<feOffset dy="-3"/>
<feComposite in2="hardAlpha" operator="arithmetic" k2="-1" k3="1"/>
<feColorMatrix type="matrix" values="0 0 0 0 0 0 0 0 0 0 0 0 0 0 0 0 0 0 0.83 0"/>
<feBlend mode="normal" in2="shape" result="effect2_innerShadow_257_362"/>
<feColorMatrix in="SourceAlpha" type="matrix" values="0 0 0 0 0 0 0 0 0 0 0 0 0 0 0 0 0 0 127 0" result="hardAlpha"/>
<feOffset dx="-2"/>
<feGaussianBlur stdDeviation="1"/>
<feComposite in2="hardAlpha" operator="arithmetic" k2="-1" k3="1"/>
<feColorMatrix type="matrix" values="0 0 0 0 0.7375 0 0 0 0 0.7375 0 0 0 0 0.7375 0 0 0 0.9 0"/>
<feBlend mode="normal" in2="effect2_innerShadow_257_362" result="effect3_innerShadow_257_362"/>
</filter>
<filter id="filter16_dii_257_362" x="125.48" y="79.158" width="36.155" height="44.698" filterUnits="userSpaceOnUse" color-interpolation-filters="sRGB">
<feFlood flood-opacity="0" result="BackgroundImageFix"/>
<feColorMatrix in="SourceAlpha" type="matrix" values="0 0 0 0 0 0 0 0 0 0 0 0 0 0 0 0 0 0 127 0" result="hardAlpha"/>
<feOffset dy="6"/>
<feGaussianBlur stdDeviation="4.5"/>
<feComposite in2="hardAlpha" operator="out"/>
<feColorMatrix type="matrix" values="0 0 0 0 0 0 0 0 0 0 0 0 0 0 0 0 0 0 0.4 0"/>
<feBlend mode="normal" in2="BackgroundImageFix" result="effect1_dropShadow_257_362"/>
<feBlend mode="normal" in="SourceGraphic" in2="effect1_dropShadow_257_362" result="shape"/>
<feColorMatrix in="SourceAlpha" type="matrix" values="0 0 0 0 0 0 0 0 0 0 0 0 0 0 0 0 0 0 127 0" result="hardAlpha"/>
<feOffset dy="-3"/>
<feComposite in2="hardAlpha" operator="arithmetic" k2="-1" k3="1"/>
<feColorMatrix type="matrix" values="0 0 0 0 0 0 0 0 0 0 0 0 0 0 0 0 0 0 0.83 0"/>
<feBlend mode="normal" in2="shape" result="effect2_innerShadow_257_362"/>
<feColorMatrix in="SourceAlpha" type="matrix" values="0 0 0 0 0 0 0 0 0 0 0 0 0 0 0 0 0 0 127 0" result="hardAlpha"/>
<feOffset dx="-2"/>
<feGaussianBlur stdDeviation="1"/>
<feComposite in2="hardAlpha" operator="arithmetic" k2="-1" k3="1"/>
<feColorMatrix type="matrix" values="0 0 0 0 0.7375 0 0 0 0 0.7375 0 0 0 0 0.7375 0 0 0 0.9 0"/>
<feBlend mode="normal" in2="effect2_innerShadow_257_362" result="effect3_innerShadow_257_362"/>
</filter>
<filter id="filter17_dii_257_362" x="146.678" y="78.3615" width="36.159" height="46.4453" filterUnits="userSpaceOnUse" color-interpolation-filters="sRGB">
<feFlood flood-opacity="0" result="BackgroundImageFix"/>
<feColorMatrix in="SourceAlpha" type="matrix" values="0 0 0 0 0 0 0 0 0 0 0 0 0 0 0 0 0 0 127 0" result="hardAlpha"/>
<feOffset dy="6"/>
<feGaussianBlur stdDeviation="4.5"/>
<feComposite in2="hardAlpha" operator="out"/>
<feColorMatrix type="matrix" values="0 0 0 0 0 0 0 0 0 0 0 0 0 0 0 0 0 0 0.4 0"/>
<feBlend mode="normal" in2="BackgroundImageFix" result="effect1_dropShadow_257_362"/>
<feBlend mode="normal" in="SourceGraphic" in2="effect1_dropShadow_257_362" result="shape"/>
<feColorMatrix in="SourceAlpha" type="matrix" values="0 0 0 0 0 0 0 0 0 0 0 0 0 0 0 0 0 0 127 0" result="hardAlpha"/>
<feOffset dy="-3"/>
<feComposite in2="hardAlpha" operator="arithmetic" k2="-1" k3="1"/>
<feColorMatrix type="matrix" values="0 0 0 0 0 0 0 0 0 0 0 0 0 0 0 0 0 0 0.83 0"/>
<feBlend mode="normal" in2="shape" result="effect2_innerShadow_257_362"/>
<feColorMatrix in="SourceAlpha" type="matrix" values="0 0 0 0 0 0 0 0 0 0 0 0 0 0 0 0 0 0 127 0" result="hardAlpha"/>
<feOffset dx="-2"/>
<feGaussianBlur stdDeviation="1"/>
<feComposite in2="hardAlpha" operator="arithmetic" k2="-1" k3="1"/>
<feColorMatrix type="matrix" values="0 0 0 0 0.7375 0 0 0 0 0.7375 0 0 0 0 0.7375 0 0 0 0.9 0"/>
<feBlend mode="normal" in2="effect2_innerShadow_257_362" result="effect3_innerShadow_257_362"/>
</filter>
</defs>
</svg>
